<svg width="40" height="40" viewBox="0 0 40 40" fill="none" xmlns="http://www.w3.org/2000/svg">
<g clip-path="url(#clip0_443_4102)">
<path fill-rule="evenodd" clip-rule="evenodd" d="M20.0871 5.83337C18.8954 5.83337 18.2137 7.33337 17.3104 9.62004C16.7537 11.035 16.1754 12.495 15.2504 13.4517C14.0487 14.6917 12.1337 14.7884 10.2804 14.88C7.83375 15 6.65208 15.1767 6.39375 16.2767C6.11041 17.485 6.91208 18.3017 8.67708 19.7584C9.99041 20.8417 11.4787 22.0684 11.8754 23.8734C12.2154 25.4217 11.8004 27.0467 11.3987 28.6167C10.7804 31.0367 10.5987 32.2584 11.6054 33.02C12.5321 33.7184 13.5154 33.2084 15.5354 31.8717C16.9587 30.9317 18.4271 29.9584 20.0871 29.9584C21.7454 29.9584 23.2154 30.9317 24.6371 31.8717C26.6554 33.2067 27.6371 33.7184 28.5687 33.02C29.5754 32.2584 29.3937 31.035 28.7737 28.615C28.3737 27.0467 27.9587 25.4217 28.2987 23.8717C28.6937 22.0684 30.1821 20.8417 31.4954 19.7584C33.2604 18.3034 34.0621 17.485 33.7787 16.275C33.5204 15.1767 32.3404 15 29.8937 14.88C28.0404 14.7884 26.1237 14.6917 24.9237 13.4517C23.9987 12.495 23.4204 11.035 22.8637 9.62004C21.9587 7.33171 21.2771 5.83337 20.0871 5.83337ZM12.4521 35.845C11.6804 35.845 10.8904 35.61 10.1004 35.015C7.65375 33.17 8.38708 30.3017 8.97541 27.9984C9.30541 26.7084 9.64541 25.38 9.43208 24.41C9.22208 23.4467 8.18541 22.5934 7.08875 21.6884C5.39708 20.295 3.29041 18.5584 3.96041 15.705C4.67875 12.6534 7.84541 12.4967 10.1571 12.3834C11.4621 12.3184 12.9404 12.245 13.4537 11.7134C14.0337 11.115 14.5171 9.89004 14.9854 8.70337C15.9304 6.31004 17.1054 3.33337 20.0871 3.33337C23.0671 3.33337 24.2437 6.31004 25.1887 8.70337C25.6571 9.89004 26.1404 11.115 26.7204 11.7134C27.2337 12.245 28.7121 12.3184 30.0171 12.3834C32.3287 12.4967 35.4954 12.6534 36.2121 15.7034C36.8821 18.5584 34.7754 20.295 33.0854 21.6884C31.9871 22.5934 30.9504 23.4467 30.7404 24.41C30.5271 25.3784 30.8671 26.7084 31.1971 27.9967C31.7871 30.3017 32.5187 33.1684 30.0737 35.015C27.6321 36.8517 25.2071 35.2467 23.2571 33.9567C22.1437 33.22 20.9921 32.4584 20.0871 32.4584C19.1804 32.4584 18.0287 33.22 16.9154 33.9567C15.5971 34.8284 14.0621 35.845 12.4521 35.845Z" fill="#307BFD"/>
</g>
<defs>
<clipPath id="clip0_443_4102">
<rect width="40" height="40" fill="white"/>
</clipPath>
</defs>
</svg>
