<svg width="164" height="43" viewBox="0 0 164 43" fill="none" xmlns="http://www.w3.org/2000/svg">
<rect width="164" height="43" rx="8" fill="#111111"/>
<path d="M38.1287 21.4915L26.9007 32.513C26.3078 32.0549 25.9575 31.3452 25.9575 30.5997V12.4103C25.9575 11.6558 26.2989 10.9462 26.9007 10.4971L38.1287 21.4915Z" fill="#2196F3"/>
<path d="M47.0392 21.4915C47.0392 22.3628 46.5721 23.1712 45.8086 23.6024L42.2785 25.5605L38.1196 21.5005L42.2785 17.4404L45.8086 19.4166C46.5721 19.8298 47.0392 20.6292 47.0392 21.4915Z" fill="#FFC107"/>
<path d="M42.2873 25.5603L29.4873 32.7103C29.137 32.8989 28.7418 32.9977 28.3376 32.9977C27.9154 33.0067 27.5022 32.8899 27.1519 32.6744C27.0621 32.6294 26.9812 32.5756 26.9004 32.5217L38.1284 21.5002L42.2873 25.5603Z" fill="#F44336"/>
<path d="M42.2873 17.431L38.1284 21.4911L26.9004 10.4876C26.9812 10.4337 27.0621 10.3798 27.1519 10.3349C27.8705 9.90376 28.7597 9.8858 29.4873 10.299L42.2873 17.431Z" fill="#4CAF50"/>
<path d="M61.5 16H59.7045V10.1818H61.5795C62.1439 10.1818 62.6269 10.2983 63.0284 10.5312C63.4299 10.7623 63.7377 11.0947 63.9517 11.5284C64.1657 11.9602 64.2727 12.4773 64.2727 13.0795C64.2727 13.6856 64.1648 14.2074 63.9489 14.6449C63.733 15.0805 63.4186 15.4157 63.0057 15.6506C62.5928 15.8835 62.0909 16 61.5 16ZM60.4091 15.375H61.4545C61.9356 15.375 62.3343 15.2822 62.6506 15.0966C62.9669 14.911 63.2027 14.6468 63.358 14.304C63.5133 13.9612 63.5909 13.553 63.5909 13.0795C63.5909 12.6098 63.5142 12.2055 63.3608 11.8665C63.2074 11.5256 62.9782 11.2642 62.6733 11.0824C62.3684 10.8987 61.9886 10.8068 61.5341 10.8068H60.4091V15.375ZM67.1364 16.0909C66.7424 16.0909 66.3968 15.9972 66.0994 15.8097C65.804 15.6222 65.5729 15.3598 65.4062 15.0227C65.2415 14.6856 65.1591 14.2917 65.1591 13.8409C65.1591 13.3864 65.2415 12.9896 65.4062 12.6506C65.5729 12.3116 65.804 12.0483 66.0994 11.8608C66.3968 11.6733 66.7424 11.5795 67.1364 11.5795C67.5303 11.5795 67.875 11.6733 68.1705 11.8608C68.4678 12.0483 68.6989 12.3116 68.8636 12.6506C69.0303 12.9896 69.1136 13.3864 69.1136 13.8409C69.1136 14.2917 69.0303 14.6856 68.8636 15.0227C68.6989 15.3598 68.4678 15.6222 68.1705 15.8097C67.875 15.9972 67.5303 16.0909 67.1364 16.0909ZM67.1364 15.4886C67.4356 15.4886 67.6818 15.4119 67.875 15.2585C68.0682 15.1051 68.2112 14.9034 68.304 14.6534C68.3968 14.4034 68.4432 14.1326 68.4432 13.8409C68.4432 13.5492 68.3968 13.2775 68.304 13.0256C68.2112 12.7737 68.0682 12.5701 67.875 12.4148C67.6818 12.2595 67.4356 12.1818 67.1364 12.1818C66.8371 12.1818 66.5909 12.2595 66.3977 12.4148C66.2045 12.5701 66.0616 12.7737 65.9688 13.0256C65.8759 13.2775 65.8295 13.5492 65.8295 13.8409C65.8295 14.1326 65.8759 14.4034 65.9688 14.6534C66.0616 14.9034 66.2045 15.1051 66.3977 15.2585C66.5909 15.4119 66.8371 15.4886 67.1364 15.4886ZM70.9773 16L69.6477 11.6364H70.3523L71.2955 14.9773H71.3409L72.2727 11.6364H72.9886L73.9091 14.9659H73.9545L74.8977 11.6364H75.6023L74.2727 16H73.6136L72.6591 12.6477H72.5909L71.6364 16H70.9773ZM77.1591 13.375V16H76.4886V11.6364H77.1364V12.3182H77.1932C77.2955 12.0966 77.4508 11.9186 77.6591 11.7841C77.8674 11.6477 78.1364 11.5795 78.4659 11.5795C78.7614 11.5795 79.0199 11.6402 79.2415 11.7614C79.4631 11.8807 79.6354 12.0625 79.7585 12.3068C79.8816 12.5492 79.9432 12.8561 79.9432 13.2273V16H79.2727V13.2727C79.2727 12.9299 79.1837 12.6629 79.0057 12.4716C78.8277 12.2784 78.5833 12.1818 78.2727 12.1818C78.0587 12.1818 77.8674 12.2282 77.6989 12.321C77.5322 12.4138 77.4006 12.5492 77.304 12.7273C77.2074 12.9053 77.1591 13.1212 77.1591 13.375ZM81.8388 10.1818V16H81.1683V10.1818H81.8388ZM84.8395 16.0909C84.4455 16.0909 84.0999 15.9972 83.8026 15.8097C83.5071 15.6222 83.276 15.3598 83.1094 15.0227C82.9446 14.6856 82.8622 14.2917 82.8622 13.8409C82.8622 13.3864 82.9446 12.9896 83.1094 12.6506C83.276 12.3116 83.5071 12.0483 83.8026 11.8608C84.0999 11.6733 84.4455 11.5795 84.8395 11.5795C85.2334 11.5795 85.5781 11.6733 85.8736 11.8608C86.1709 12.0483 86.402 12.3116 86.5668 12.6506C86.7334 12.9896 86.8168 13.3864 86.8168 13.8409C86.8168 14.2917 86.7334 14.6856 86.5668 15.0227C86.402 15.3598 86.1709 15.6222 85.8736 15.8097C85.5781 15.9972 85.2334 16.0909 84.8395 16.0909ZM84.8395 15.4886C85.1387 15.4886 85.3849 15.4119 85.5781 15.2585C85.7713 15.1051 85.9143 14.9034 86.0071 14.6534C86.0999 14.4034 86.1463 14.1326 86.1463 13.8409C86.1463 13.5492 86.0999 13.2775 86.0071 13.0256C85.9143 12.7737 85.7713 12.5701 85.5781 12.4148C85.3849 12.2595 85.1387 12.1818 84.8395 12.1818C84.5402 12.1818 84.294 12.2595 84.1009 12.4148C83.9077 12.5701 83.7647 12.7737 83.6719 13.0256C83.5791 13.2775 83.5327 13.5492 83.5327 13.8409C83.5327 14.1326 83.5791 14.4034 83.6719 14.6534C83.7647 14.9034 83.9077 15.1051 84.1009 15.2585C84.294 15.4119 84.5402 15.4886 84.8395 15.4886ZM89.1243 16.1023C88.8478 16.1023 88.5968 16.0502 88.3714 15.946C88.1461 15.84 87.9671 15.6875 87.8345 15.4886C87.7019 15.2879 87.6357 15.0455 87.6357 14.7614C87.6357 14.5114 87.6849 14.3087 87.7834 14.1534C87.8819 13.9962 88.0135 13.8731 88.1783 13.7841C88.343 13.6951 88.5249 13.6288 88.7237 13.5852C88.9245 13.5398 89.1262 13.5038 89.3288 13.4773C89.594 13.4432 89.8089 13.4176 89.9737 13.4006C90.1404 13.3816 90.2616 13.3504 90.3374 13.3068C90.415 13.2633 90.4538 13.1875 90.4538 13.0795V13.0568C90.4538 12.7765 90.3771 12.5587 90.2237 12.4034C90.0722 12.2481 89.8421 12.1705 89.5334 12.1705C89.2133 12.1705 88.9624 12.2405 88.7805 12.3807C88.5987 12.5208 88.4709 12.6705 88.397 12.8295L87.7607 12.6023C87.8743 12.3371 88.0258 12.1307 88.2152 11.983C88.4065 11.8333 88.6148 11.7292 88.8402 11.6705C89.0675 11.6098 89.291 11.5795 89.5107 11.5795C89.6508 11.5795 89.8118 11.5966 89.9936 11.6307C90.1773 11.6629 90.3544 11.7301 90.5249 11.8324C90.6972 11.9347 90.8402 12.089 90.9538 12.2955C91.0675 12.5019 91.1243 12.7784 91.1243 13.125V16H90.4538V15.4091H90.4197C90.3743 15.5038 90.2985 15.6051 90.1925 15.7131C90.0864 15.821 89.9453 15.9129 89.7692 15.9886C89.593 16.0644 89.3781 16.1023 89.1243 16.1023ZM89.2266 15.5C89.4917 15.5 89.7152 15.4479 89.897 15.3438C90.0807 15.2396 90.219 15.1051 90.3118 14.9403C90.4065 14.7756 90.4538 14.6023 90.4538 14.4205V13.8068C90.4254 13.8409 90.3629 13.8722 90.2663 13.9006C90.1716 13.9271 90.0618 13.9508 89.9368 13.9716C89.8137 13.9905 89.6934 14.0076 89.576 14.0227C89.4605 14.036 89.3667 14.0473 89.2947 14.0568C89.1205 14.0795 88.9576 14.1165 88.8061 14.1676C88.6565 14.2169 88.5353 14.2917 88.4425 14.392C88.3516 14.4905 88.3061 14.625 88.3061 14.7955C88.3061 15.0284 88.3923 15.2045 88.5646 15.3239C88.7389 15.4413 88.9595 15.5 89.2266 15.5ZM93.9957 16.0909C93.6321 16.0909 93.3111 15.9991 93.0327 15.8153C92.7543 15.6297 92.5365 15.3684 92.3793 15.0312C92.2221 14.6922 92.1435 14.2917 92.1435 13.8295C92.1435 13.3712 92.2221 12.9735 92.3793 12.6364C92.5365 12.2992 92.7552 12.0388 93.0355 11.8551C93.3158 11.6714 93.6397 11.5795 94.0071 11.5795C94.2912 11.5795 94.5156 11.6269 94.6804 11.7216C94.8471 11.8144 94.974 11.9205 95.0611 12.0398C95.1501 12.1572 95.2192 12.2538 95.2685 12.3295H95.3253V10.1818H95.9957V16H95.348V15.3295H95.2685C95.2192 15.4091 95.1491 15.5095 95.0582 15.6307C94.9673 15.75 94.8376 15.857 94.669 15.9517C94.5005 16.0445 94.276 16.0909 93.9957 16.0909ZM94.0866 15.4886C94.3556 15.4886 94.5829 15.4186 94.7685 15.2784C94.9541 15.1364 95.0952 14.9403 95.1918 14.6903C95.2884 14.4384 95.3366 14.1477 95.3366 13.8182C95.3366 13.4924 95.2893 13.2074 95.1946 12.9631C95.0999 12.7169 94.9598 12.5256 94.7741 12.3892C94.5885 12.2509 94.3594 12.1818 94.0866 12.1818C93.8026 12.1818 93.5658 12.2547 93.3764 12.4006C93.1889 12.5445 93.0478 12.7405 92.9531 12.9886C92.8603 13.2348 92.8139 13.5114 92.8139 13.8182C92.8139 14.1288 92.8613 14.411 92.956 14.6648C93.0526 14.9167 93.1946 15.1174 93.3821 15.267C93.5715 15.4148 93.8063 15.4886 94.0866 15.4886ZM101.339 16.0909C100.946 16.0909 100.6 15.9972 100.303 15.8097C100.007 15.6222 99.776 15.3598 99.6094 15.0227C99.4446 14.6856 99.3622 14.2917 99.3622 13.8409C99.3622 13.3864 99.4446 12.9896 99.6094 12.6506C99.776 12.3116 100.007 12.0483 100.303 11.8608C100.6 11.6733 100.946 11.5795 101.339 11.5795C101.733 11.5795 102.078 11.6733 102.374 11.8608C102.671 12.0483 102.902 12.3116 103.067 12.6506C103.233 12.9896 103.317 13.3864 103.317 13.8409C103.317 14.2917 103.233 14.6856 103.067 15.0227C102.902 15.3598 102.671 15.6222 102.374 15.8097C102.078 15.9972 101.733 16.0909 101.339 16.0909ZM101.339 15.4886C101.639 15.4886 101.885 15.4119 102.078 15.2585C102.271 15.1051 102.414 14.9034 102.507 14.6534C102.6 14.4034 102.646 14.1326 102.646 13.8409C102.646 13.5492 102.6 13.2775 102.507 13.0256C102.414 12.7737 102.271 12.5701 102.078 12.4148C101.885 12.2595 101.639 12.1818 101.339 12.1818C101.04 12.1818 100.794 12.2595 100.601 12.4148C100.408 12.5701 100.265 12.7737 100.172 13.0256C100.079 13.2775 100.033 13.5492 100.033 13.8409C100.033 14.1326 100.079 14.4034 100.172 14.6534C100.265 14.9034 100.408 15.1051 100.601 15.2585C100.794 15.4119 101.04 15.4886 101.339 15.4886ZM105.011 13.375V16H104.34V11.6364H104.988V12.3182H105.045C105.147 12.0966 105.302 11.9186 105.511 11.7841C105.719 11.6477 105.988 11.5795 106.317 11.5795C106.613 11.5795 106.871 11.6402 107.093 11.7614C107.315 11.8807 107.487 12.0625 107.61 12.3068C107.733 12.5492 107.795 12.8561 107.795 13.2273V16H107.124V13.2727C107.124 12.9299 107.035 12.6629 106.857 12.4716C106.679 12.2784 106.435 12.1818 106.124 12.1818C105.91 12.1818 105.719 12.2282 105.55 12.321C105.384 12.4138 105.252 12.5492 105.156 12.7273C105.059 12.9053 105.011 13.1212 105.011 13.375ZM113.168 11.6364V12.2045H110.906V11.6364H113.168ZM111.565 10.5909H112.236V14.75C112.236 14.9394 112.263 15.0814 112.318 15.1761C112.375 15.2689 112.447 15.3314 112.534 15.3636C112.623 15.3939 112.717 15.4091 112.815 15.4091C112.889 15.4091 112.95 15.4053 112.997 15.3977C113.045 15.3883 113.082 15.3807 113.111 15.375L113.247 15.9773C113.202 15.9943 113.138 16.0114 113.057 16.0284C112.975 16.0473 112.872 16.0568 112.747 16.0568C112.558 16.0568 112.372 16.0161 112.19 15.9347C112.01 15.8532 111.861 15.7292 111.741 15.5625C111.624 15.3958 111.565 15.1856 111.565 14.9318V10.5909ZM114.94 13.375V16H114.27V10.1818H114.94V12.3182H114.997C115.099 12.0928 115.253 11.9138 115.457 11.7812C115.664 11.6468 115.938 11.5795 116.281 11.5795C116.579 11.5795 116.839 11.6392 117.062 11.7585C117.286 11.8759 117.459 12.0568 117.582 12.3011C117.707 12.5436 117.77 12.8523 117.77 13.2273V16H117.099V13.2727C117.099 12.9261 117.009 12.6581 116.83 12.4688C116.652 12.2775 116.404 12.1818 116.088 12.1818C115.868 12.1818 115.671 12.2282 115.497 12.321C115.325 12.4138 115.188 12.5492 115.088 12.7273C114.99 12.9053 114.94 13.1212 114.94 13.375ZM120.826 16.0909C120.406 16.0909 120.043 15.9981 119.738 15.8125C119.435 15.625 119.201 15.3636 119.036 15.0284C118.873 14.6913 118.792 14.2992 118.792 13.8523C118.792 13.4053 118.873 13.0114 119.036 12.6705C119.201 12.3277 119.43 12.0606 119.724 11.8693C120.019 11.6761 120.364 11.5795 120.758 11.5795C120.985 11.5795 121.21 11.6174 121.431 11.6932C121.653 11.7689 121.854 11.892 122.036 12.0625C122.218 12.2311 122.363 12.4545 122.471 12.733C122.579 13.0114 122.633 13.3542 122.633 13.7614V14.0455H119.269V13.4659H121.951C121.951 13.2197 121.902 13 121.803 12.8068C121.707 12.6136 121.568 12.4612 121.388 12.3494C121.21 12.2377 121 12.1818 120.758 12.1818C120.491 12.1818 120.26 12.2481 120.065 12.3807C119.871 12.5114 119.723 12.6818 119.619 12.892C119.514 13.1023 119.462 13.3277 119.462 13.5682V13.9545C119.462 14.2841 119.519 14.5634 119.633 14.7926C119.748 15.0199 119.908 15.1932 120.113 15.3125C120.317 15.4299 120.555 15.4886 120.826 15.4886C121.002 15.4886 121.161 15.464 121.303 15.4148C121.447 15.3636 121.571 15.2879 121.675 15.1875C121.78 15.0852 121.86 14.9583 121.917 14.8068L122.565 14.9886C122.496 15.2083 122.382 15.4015 122.221 15.5682C122.06 15.733 121.861 15.8617 121.624 15.9545C121.388 16.0455 121.121 16.0909 120.826 16.0909Z" fill="white"/>
<path d="M66.8253 25.0696C66.7424 24.8011 66.6281 24.5608 66.4822 24.3487C66.3397 24.1333 66.1674 23.9493 65.9652 23.7969C65.7663 23.6444 65.5376 23.5301 65.2791 23.4538C65.0206 23.3743 64.7389 23.3345 64.4339 23.3345C63.8871 23.3345 63.3999 23.4721 62.9723 23.7472C62.5447 24.0223 62.2083 24.4266 61.9631 24.9602C61.7211 25.4905 61.6001 26.1368 61.6001 26.8991C61.6001 27.6681 61.7211 28.3194 61.9631 28.853C62.205 29.3866 62.5414 29.7926 62.9723 30.071C63.4032 30.3461 63.9036 30.4837 64.4737 30.4837C64.9908 30.4837 65.4382 30.3842 65.8161 30.1854C66.1972 29.9865 66.4905 29.7048 66.696 29.3402C66.9015 28.9723 67.0043 28.5414 67.0043 28.0476L67.4219 28.1122H64.6577V26.6705H68.7891V27.8935C68.7891 28.7652 68.6035 29.5192 68.2322 30.1555C67.861 30.7919 67.3506 31.2824 66.701 31.6271C66.0514 31.9685 65.3056 32.1392 64.4638 32.1392C63.5258 32.1392 62.7022 31.9287 61.9929 31.5078C61.2869 31.0836 60.7351 30.482 60.3374 29.7031C59.9429 28.9209 59.7457 27.9929 59.7457 26.919C59.7457 26.0971 59.8617 25.3629 60.0938 24.7166C60.3291 24.0703 60.6572 23.5218 61.0781 23.071C61.4991 22.617 61.9929 22.2723 62.5597 22.0369C63.1264 21.7983 63.7429 21.679 64.4091 21.679C64.9725 21.679 65.4979 21.7618 65.9851 21.9276C66.4723 22.09 66.9048 22.322 67.2827 22.6236C67.6638 22.9252 67.977 23.2831 68.2223 23.6974C68.4676 24.1117 68.6283 24.5691 68.7045 25.0696H66.8253ZM73.824 32.1491C73.0783 32.1491 72.432 31.9851 71.8851 31.657C71.3382 31.3288 70.914 30.8698 70.6124 30.2798C70.3141 29.6899 70.165 29.0005 70.165 28.2116C70.165 27.4228 70.3141 26.7318 70.6124 26.1385C70.914 25.5452 71.3382 25.0845 71.8851 24.7564C72.432 24.4283 73.0783 24.2642 73.824 24.2642C74.5698 24.2642 75.2161 24.4283 75.763 24.7564C76.3098 25.0845 76.7324 25.5452 77.0307 26.1385C77.3323 26.7318 77.4831 27.4228 77.4831 28.2116C77.4831 29.0005 77.3323 29.6899 77.0307 30.2798C76.7324 30.8698 76.3098 31.3288 75.763 31.657C75.2161 31.9851 74.5698 32.1491 73.824 32.1491ZM73.834 30.7074C74.2383 30.7074 74.5764 30.5964 74.8482 30.3743C75.12 30.1489 75.3221 29.8473 75.4547 29.4695C75.5906 29.0916 75.6586 28.6707 75.6586 28.2067C75.6586 27.7393 75.5906 27.3168 75.4547 26.9389C75.3221 26.5578 75.12 26.2545 74.8482 26.0291C74.5764 25.8037 74.2383 25.6911 73.834 25.6911C73.4197 25.6911 73.075 25.8037 72.7999 26.0291C72.5281 26.2545 72.3243 26.5578 72.1884 26.9389C72.0558 27.3168 71.9895 27.7393 71.9895 28.2067C71.9895 28.6707 72.0558 29.0916 72.1884 29.4695C72.3243 29.8473 72.5281 30.1489 72.7999 30.3743C73.075 30.5964 73.4197 30.7074 73.834 30.7074ZM82.3416 32.1491C81.5959 32.1491 80.9496 31.9851 80.4027 31.657C79.8558 31.3288 79.4316 30.8698 79.13 30.2798C78.8317 29.6899 78.6825 29.0005 78.6825 28.2116C78.6825 27.4228 78.8317 26.7318 79.13 26.1385C79.4316 25.5452 79.8558 25.0845 80.4027 24.7564C80.9496 24.4283 81.5959 24.2642 82.3416 24.2642C83.0874 24.2642 83.7337 24.4283 84.2805 24.7564C84.8274 25.0845 85.25 25.5452 85.5483 26.1385C85.8499 26.7318 86.0007 27.4228 86.0007 28.2116C86.0007 29.0005 85.8499 29.6899 85.5483 30.2798C85.25 30.8698 84.8274 31.3288 84.2805 31.657C83.7337 31.9851 83.0874 32.1491 82.3416 32.1491ZM82.3516 30.7074C82.7559 30.7074 83.094 30.5964 83.3658 30.3743C83.6375 30.1489 83.8397 29.8473 83.9723 29.4695C84.1082 29.0916 84.1761 28.6707 84.1761 28.2067C84.1761 27.7393 84.1082 27.3168 83.9723 26.9389C83.8397 26.5578 83.6375 26.2545 83.3658 26.0291C83.094 25.8037 82.7559 25.6911 82.3516 25.6911C81.9373 25.6911 81.5926 25.8037 81.3175 26.0291C81.0457 26.2545 80.8419 26.5578 80.706 26.9389C80.5734 27.3168 80.5071 27.7393 80.5071 28.2067C80.5071 28.6707 80.5734 29.0916 80.706 29.4695C80.8419 29.8473 81.0457 30.1489 81.3175 30.3743C81.5926 30.5964 81.9373 30.7074 82.3516 30.7074ZM90.8493 35.0227C90.2029 35.0227 89.6478 34.9349 89.1838 34.7592C88.7198 34.5869 88.3469 34.3549 88.0652 34.0632C87.7834 33.7715 87.5879 33.4484 87.4785 33.0938L89.0993 32.701C89.1722 32.8501 89.2782 32.9976 89.4174 33.1435C89.5566 33.2926 89.7439 33.4152 89.9792 33.5114C90.2179 33.6108 90.5178 33.6605 90.8791 33.6605C91.3895 33.6605 91.8121 33.5362 92.1468 33.2876C92.4816 33.0424 92.649 32.638 92.649 32.0746V30.6278H92.5595C92.4667 30.8134 92.3308 31.004 92.1518 31.1996C91.9761 31.3951 91.7425 31.5592 91.4508 31.6918C91.1625 31.8243 90.7995 31.8906 90.362 31.8906C89.7754 31.8906 89.2434 31.7531 88.7662 31.478C88.2922 31.1996 87.9144 30.7853 87.6326 30.2351C87.3542 29.6816 87.215 28.9889 87.215 28.157C87.215 27.3184 87.3542 26.6108 87.6326 26.0341C87.9144 25.4541 88.2939 25.0149 88.7711 24.7166C89.2484 24.415 89.7804 24.2642 90.367 24.2642C90.8145 24.2642 91.1824 24.3404 91.4707 24.4929C91.7624 24.642 91.9944 24.8227 92.1667 25.0348C92.3391 25.2436 92.47 25.4408 92.5595 25.6264H92.6589V24.3636H94.4338V32.1243C94.4338 32.7772 94.278 33.3175 93.9664 33.745C93.6549 34.1726 93.229 34.4924 92.6887 34.7045C92.1485 34.9167 91.5353 35.0227 90.8493 35.0227ZM90.8642 30.4787C91.2453 30.4787 91.5701 30.3859 91.8386 30.2003C92.1071 30.0147 92.3109 29.7479 92.4501 29.3999C92.5893 29.0518 92.6589 28.6342 92.6589 28.147C92.6589 27.6664 92.5893 27.2455 92.4501 26.8842C92.3142 26.523 92.112 26.2429 91.8436 26.044C91.5784 25.8419 91.252 25.7408 90.8642 25.7408C90.4631 25.7408 90.1284 25.8452 89.8599 26.054C89.5914 26.2628 89.3893 26.5495 89.2534 26.9141C89.1175 27.2753 89.0495 27.6863 89.0495 28.147C89.0495 28.6143 89.1175 29.0237 89.2534 29.375C89.3926 29.723 89.5964 29.9948 89.8649 30.1903C90.1367 30.3826 90.4698 30.4787 90.8642 30.4787ZM98.0779 21.8182V32H96.2782V21.8182H98.0779ZM103.309 32.1491C102.544 32.1491 101.882 31.9901 101.326 31.6719C100.772 31.3504 100.346 30.8963 100.048 30.3097C99.7496 29.7197 99.6005 29.0253 99.6005 28.2266C99.6005 27.4411 99.7496 26.7517 100.048 26.1584C100.35 25.5618 100.77 25.0978 101.311 24.7663C101.851 24.4316 102.486 24.2642 103.215 24.2642C103.685 24.2642 104.13 24.3404 104.547 24.4929C104.968 24.642 105.339 24.8741 105.661 25.1889C105.986 25.5038 106.241 25.9048 106.426 26.392C106.612 26.8759 106.705 27.4527 106.705 28.1222V28.674H100.446V27.4609H104.98C104.976 27.1162 104.902 26.8097 104.756 26.5412C104.61 26.2694 104.406 26.0556 104.145 25.8999C103.886 25.7441 103.584 25.6662 103.24 25.6662C102.872 25.6662 102.549 25.7557 102.27 25.9347C101.992 26.1103 101.775 26.3423 101.619 26.6307C101.467 26.9157 101.389 27.2289 101.385 27.5703V28.6293C101.385 29.0734 101.467 29.4545 101.629 29.7727C101.791 30.0876 102.018 30.3295 102.31 30.4986C102.602 30.6643 102.943 30.7472 103.334 30.7472C103.596 30.7472 103.833 30.7107 104.045 30.6378C104.257 30.5616 104.441 30.4505 104.597 30.3047C104.753 30.1589 104.87 29.9782 104.95 29.7628L106.63 29.9517C106.524 30.3958 106.322 30.7836 106.024 31.1151C105.729 31.4432 105.351 31.6984 104.89 31.8807C104.43 32.0597 103.903 32.1491 103.309 32.1491ZM111.78 32V21.8182H115.598C116.38 21.8182 117.036 21.964 117.567 22.2557C118.1 22.5473 118.503 22.9484 118.775 23.4588C119.05 23.9659 119.187 24.5426 119.187 25.1889C119.187 25.8419 119.05 26.4219 118.775 26.929C118.5 27.4361 118.094 27.8355 117.557 28.1271C117.02 28.4155 116.358 28.5597 115.573 28.5597H113.042V27.0433H115.324C115.782 27.0433 116.156 26.9638 116.448 26.8047C116.74 26.6456 116.955 26.4268 117.094 26.1484C117.237 25.87 117.308 25.5502 117.308 25.1889C117.308 24.8277 117.237 24.5095 117.094 24.2344C116.955 23.9593 116.738 23.7455 116.443 23.593C116.151 23.4373 115.775 23.3594 115.314 23.3594H113.624V32H111.78ZM122.51 21.8182V32H120.71V21.8182H122.51ZM126.558 32.1541C126.074 32.1541 125.638 32.0679 125.25 31.8956C124.866 31.7199 124.561 31.4614 124.335 31.12C124.113 30.7786 124.002 30.3577 124.002 29.8572C124.002 29.4264 124.082 29.0701 124.241 28.7884C124.4 28.5066 124.617 28.2812 124.892 28.1122C125.167 27.9432 125.477 27.8156 125.822 27.7294C126.17 27.6399 126.53 27.5753 126.901 27.5355C127.348 27.4891 127.711 27.4477 127.99 27.4112C128.268 27.3714 128.47 27.3118 128.596 27.2322C128.725 27.1494 128.79 27.0218 128.79 26.8494V26.8196C128.79 26.4451 128.679 26.1551 128.457 25.9496C128.235 25.7441 127.915 25.6413 127.497 25.6413C127.057 25.6413 126.707 25.7375 126.448 25.9297C126.193 26.1219 126.021 26.349 125.931 26.6108L124.251 26.3722C124.383 25.9081 124.602 25.5204 124.907 25.2088C125.212 24.8939 125.585 24.6586 126.026 24.5028C126.467 24.3438 126.954 24.2642 127.487 24.2642C127.855 24.2642 128.222 24.3073 128.586 24.3935C128.951 24.4796 129.284 24.6222 129.585 24.821C129.887 25.0166 130.129 25.2834 130.311 25.6214C130.497 25.9595 130.59 26.3821 130.59 26.8892V32H128.86V30.951H128.8C128.691 31.1631 128.536 31.362 128.338 31.5476C128.142 31.7299 127.895 31.8774 127.597 31.9901C127.302 32.0994 126.955 32.1541 126.558 32.1541ZM127.025 30.8317C127.386 30.8317 127.7 30.7604 127.965 30.6179C128.23 30.4721 128.434 30.2798 128.576 30.0412C128.722 29.8026 128.795 29.5424 128.795 29.2607V28.3608C128.739 28.4072 128.642 28.4503 128.507 28.4901C128.374 28.5298 128.225 28.5646 128.059 28.5945C127.893 28.6243 127.729 28.6508 127.567 28.674C127.405 28.6972 127.264 28.7171 127.144 28.7337C126.876 28.7701 126.636 28.8298 126.423 28.9126C126.211 28.9955 126.044 29.1115 125.921 29.2607C125.799 29.4065 125.737 29.5954 125.737 29.8274C125.737 30.1589 125.858 30.4091 126.1 30.5781C126.342 30.7472 126.651 30.8317 127.025 30.8317ZM133.244 34.8636C132.999 34.8636 132.772 34.8438 132.563 34.804C132.358 34.7675 132.194 34.7244 132.071 34.6747L132.489 33.2727C132.751 33.349 132.984 33.3854 133.19 33.3821C133.395 33.3788 133.576 33.3142 133.732 33.1882C133.891 33.0656 134.025 32.8601 134.134 32.5717L134.289 32.1591L131.519 24.3636H133.428L135.188 30.1307H135.268L137.033 24.3636H138.947L135.889 32.9247C135.747 33.3291 135.558 33.6754 135.323 33.9638C135.087 34.2554 134.799 34.4775 134.458 34.63C134.119 34.7857 133.715 34.8636 133.244 34.8636Z" fill="white"/>
</svg>
