<svg width="20" height="20" viewBox="0 0 20 20" fill="none" xmlns="http://www.w3.org/2000/svg">
<path fill-rule="evenodd" clip-rule="evenodd" d="M9.63011 10.2276H9.65594C12.0159 10.2276 13.9359 8.30758 13.9359 5.94758C13.9359 3.58758 12.0159 1.66675 9.65594 1.66675C7.29511 1.66675 5.37511 3.58758 5.37511 5.94508C5.37094 7.08591 5.81178 8.15925 6.61511 8.96842C7.41761 9.77675 8.48844 10.2242 9.63011 10.2276ZM6.62511 5.94758C6.62511 4.27675 7.98511 2.91675 9.65594 2.91675C11.3268 2.91675 12.6859 4.27675 12.6859 5.94758C12.6859 7.61842 11.3268 8.97758 9.65594 8.97758H9.63261C8.82594 8.97591 8.07011 8.65925 7.50178 8.08675C6.93344 7.51508 6.62261 6.75592 6.62511 5.94758Z" fill="#8C8C8C"/>
<path fill-rule="evenodd" clip-rule="evenodd" d="M3.33325 15.9475C3.33325 18.9683 8.09659 18.9683 9.66159 18.9683C11.2266 18.9683 15.9908 18.9683 15.9908 15.9292C15.9908 13.6017 13.0924 11.635 9.66159 11.635C6.23159 11.635 3.33325 13.61 3.33325 15.9475ZM4.58325 15.9475C4.58325 14.5017 6.75492 12.885 9.66159 12.885C12.5691 12.885 14.7408 14.4925 14.7408 15.9292C14.7408 17.1158 13.0316 17.7183 9.66159 17.7183C6.29242 17.7183 4.58325 17.1225 4.58325 15.9475Z" fill="#8C8C8C"/>
</svg>
