<svg width="32" height="32" viewBox="0 0 32 32" fill="none" xmlns="http://www.w3.org/2000/svg">
<path d="M9.71912 12.4145C9.84064 12.2831 9.98498 12.1789 10.1439 12.1077C10.3028 12.0366 10.4731 12 10.6452 12C10.8172 12 10.9875 12.0366 11.1464 12.1077C11.3053 12.1789 11.4497 12.2831 11.5712 12.4145L16.6677 17.914L21.7643 12.4145C22.0099 12.1495 22.343 12.0006 22.6903 12.0006C23.0376 12.0006 23.3707 12.1495 23.6163 12.4145C23.8619 12.6795 23.9999 13.039 23.9999 13.4138C23.9999 13.7886 23.8619 14.148 23.6163 14.413L17.5872 20.9188C17.4657 21.0502 17.3213 21.1545 17.1624 21.2256C17.0035 21.2967 16.8332 21.3333 16.6612 21.3333C16.4891 21.3333 16.3188 21.2967 16.1599 21.2256C16.001 21.1545 15.8566 21.0502 15.7351 20.9188L9.70598 14.413C9.20684 13.8744 9.20684 12.9673 9.71912 12.4145Z" fill="#307BFD"/>
</svg>
