<svg width="24" height="24" viewBox="0 0 24 24" fill="none" xmlns="http://www.w3.org/2000/svg">
<path d="M11.999 7.37695C10.7726 7.37695 9.59651 7.86412 8.72934 8.73129C7.86217 9.59846 7.375 10.7746 7.375 12.001C7.375 13.2273 7.86217 14.4034 8.72934 15.2706C9.59651 16.1378 10.7726 16.625 11.999 16.625C13.2254 16.625 14.4015 16.1378 15.2687 15.2706C16.1358 14.4034 16.623 13.2273 16.623 12.001C16.623 10.7746 16.1358 9.59846 15.2687 8.73129C14.4015 7.86412 13.2254 7.37695 11.999 7.37695ZM11.999 15.004C11.2023 15.004 10.4382 14.6875 9.87485 14.1241C9.31149 13.5607 8.995 12.7967 8.995 12C8.995 11.2032 9.31149 10.4392 9.87485 9.8758C10.4382 9.31245 11.2023 8.99595 11.999 8.99595C12.7957 8.99595 13.5598 9.31245 14.1231 9.8758C14.6865 10.4392 15.003 11.2032 15.003 12C15.003 12.7967 14.6865 13.5607 14.1231 14.1241C13.5598 14.6875 12.7957 15.004 11.999 15.004Z" fill="white"/>
<path d="M16.8046 8.28491C17.3999 8.28491 17.8826 7.80227 17.8826 7.20691C17.8826 6.61154 17.3999 6.12891 16.8046 6.12891C16.2092 6.12891 15.7266 6.61154 15.7266 7.20691C15.7266 7.80227 16.2092 8.28491 16.8046 8.28491Z" fill="white"/>
<path d="M20.5349 6.11064C20.3034 5.51282 19.9496 4.96992 19.4962 4.5167C19.0428 4.06347 18.4998 3.70991 17.9019 3.47864C17.2022 3.216 16.4631 3.07398 15.7159 3.05864C14.7529 3.01664 14.4479 3.00464 12.0059 3.00464C9.56391 3.00464 9.25091 3.00464 8.29591 3.05864C7.54929 3.0732 6.81066 3.21524 6.11191 3.47864C5.51384 3.70964 4.97067 4.06311 4.51724 4.51637C4.06381 4.96963 3.71013 5.51266 3.47891 6.11064C3.21621 6.81025 3.07452 7.54948 3.05991 8.29664C3.01691 9.25864 3.00391 9.56364 3.00391 12.0066C3.00391 14.4486 3.00391 14.7596 3.05991 15.7166C3.07491 16.4646 3.21591 17.2026 3.47891 17.9036C3.71078 18.5014 4.0648 19.0442 4.51834 19.4974C4.97188 19.9506 5.51497 20.3042 6.11291 20.5356C6.81034 20.8088 7.54928 20.961 8.29791 20.9856C9.26091 21.0276 9.56591 21.0406 12.0079 21.0406C14.4499 21.0406 14.7629 21.0406 15.7179 20.9856C16.465 20.9704 17.2041 20.8288 17.9039 20.5666C18.5017 20.3348 19.0445 19.981 19.4979 19.5276C19.9512 19.0743 20.3051 18.5314 20.5369 17.9336C20.7999 17.2336 20.9409 16.4956 20.9559 15.7476C20.9989 14.7856 21.0119 14.4806 21.0119 12.0376C21.0119 9.59464 21.0119 9.28464 20.9559 8.32764C20.9443 7.56991 20.8018 6.81989 20.5349 6.11064ZM19.3169 15.6426C19.3105 16.2189 19.2053 16.7899 19.0059 17.3306C18.8557 17.7195 18.6258 18.0726 18.331 18.3673C18.0361 18.662 17.6829 18.8917 17.2939 19.0416C16.7591 19.2401 16.1943 19.3453 15.6239 19.3526C14.6739 19.3966 14.4059 19.4076 11.9699 19.4076C9.53191 19.4076 9.28291 19.4076 8.31491 19.3526C7.74483 19.3457 7.18023 19.2405 6.64591 19.0416C6.25559 18.8926 5.90091 18.6633 5.6048 18.3686C5.30868 18.0739 5.07774 17.7203 4.92691 17.3306C4.73035 16.7957 4.62522 16.2315 4.61591 15.6616C4.57291 14.7116 4.56291 14.4436 4.56291 12.0076C4.56291 9.57064 4.56291 9.32164 4.61591 8.35264C4.62237 7.77666 4.72756 7.20606 4.92691 6.66564C5.23191 5.87664 5.85691 5.25564 6.64591 4.95364C7.1805 4.75578 7.74493 4.6506 8.31491 4.64264C9.26591 4.59964 9.53291 4.58764 11.9699 4.58764C14.4069 4.58764 14.6569 4.58764 15.6239 4.64264C16.1943 4.6495 16.7593 4.75471 17.2939 4.95364C17.6828 5.10391 18.036 5.33384 18.3309 5.62867C18.6257 5.9235 18.8556 6.27671 19.0059 6.66564C19.2025 7.20059 19.3076 7.7648 19.3169 8.33464C19.3599 9.28564 19.3709 9.55264 19.3709 11.9896C19.3709 14.4256 19.3709 14.6876 19.3279 15.6436H19.3169V15.6426Z" fill="white"/>
</svg>
