<svg width="24" height="24" viewBox="0 0 24 24" fill="none" xmlns="http://www.w3.org/2000/svg">
<g clip-path="url(#clip0_567_15785)">
<path d="M18.1542 4.11799C16.3772 2.33674 14.0107 1.35706 11.4958 1.35706C6.30469 1.35706 2.08058 5.58116 2.08058 10.7722C2.08058 12.4305 2.51317 14.0506 3.33594 15.4798L2 20.3571L6.99174 19.0466C8.36585 19.7972 9.91384 20.1917 11.4915 20.1917H11.4958C16.6826 20.1917 21 15.9675 21 10.7765C21 8.26152 19.9312 5.89924 18.1542 4.11799ZM11.4958 18.6055C10.0877 18.6055 8.70937 18.228 7.50915 17.5155L7.225 17.3459L4.26473 18.122L5.05357 15.2338L4.86696 14.937C4.08237 13.6901 3.67098 12.2524 3.67098 10.7722C3.67098 6.45906 7.18259 2.94746 11.5 2.94746C13.5908 2.94746 15.5545 3.76174 17.0304 5.24188C18.5062 6.72201 19.4138 8.68563 19.4096 10.7765C19.4096 15.0939 15.8089 18.6055 11.4958 18.6055ZM15.7877 12.7443C15.5545 12.6256 14.3967 12.0573 14.1804 11.9809C13.9641 11.9004 13.8071 11.8622 13.6502 12.0997C13.4933 12.3372 13.0437 12.8631 12.9038 13.0242C12.7681 13.1812 12.6281 13.2024 12.3949 13.0836C11.0123 12.3923 10.1047 11.8495 9.19286 10.2845C8.95112 9.86889 9.4346 9.89857 9.88415 8.99947C9.96049 8.84255 9.92232 8.70683 9.86295 8.58808C9.80357 8.46933 9.33281 7.31152 9.13772 6.84076C8.94688 6.38273 8.75179 6.44634 8.60759 6.43786C8.47187 6.42938 8.31495 6.42938 8.15804 6.42938C8.00112 6.42938 7.74665 6.48875 7.53036 6.72201C7.31406 6.95951 6.70759 7.52781 6.70759 8.68563C6.70759 9.84344 7.55156 10.9631 7.66607 11.12C7.78482 11.2769 9.32433 13.6519 11.6866 14.674C13.1795 15.3187 13.7647 15.3738 14.5112 15.2635C14.965 15.1957 15.9022 14.6952 16.0973 14.1439C16.2924 13.5925 16.2924 13.1218 16.233 13.0242C16.1779 12.9182 16.021 12.8588 15.7877 12.7443Z" fill="white"/>
</g>
<defs>
<clipPath id="clip0_567_15785">
<rect width="19" height="21.7143" fill="white" transform="translate(2)"/>
</clipPath>
</defs>
</svg>
