<svg width="20" height="20" viewBox="0 0 20 20" fill="none" xmlns="http://www.w3.org/2000/svg">
<path d="M5.24117 6.92581C5.31712 6.84369 5.40733 6.77854 5.50665 6.73408C5.60596 6.68963 5.71242 6.66675 5.81994 6.66675C5.92746 6.66675 6.03393 6.68963 6.13324 6.73408C6.23256 6.77854 6.32277 6.84369 6.39872 6.92581L9.58405 10.363L12.7694 6.92581C12.9229 6.76018 13.1311 6.66712 13.3482 6.66712C13.5652 6.66712 13.7734 6.76018 13.9269 6.92581C14.0804 7.09145 14.1667 7.3161 14.1667 7.55035C14.1667 7.7846 14.0804 8.00925 13.9269 8.17489L10.1587 12.241C10.0828 12.3231 9.99256 12.3883 9.89324 12.4327C9.79393 12.4772 9.68746 12.5001 9.57994 12.5001C9.47242 12.5001 9.36596 12.4772 9.26665 12.4327C9.16733 12.3883 9.07712 12.3231 9.00117 12.241L5.23296 8.17489C4.92099 7.83826 4.92099 7.2713 5.24117 6.92581Z" fill="#111111"/>
</svg>
