<svg width="20" height="20" viewBox="0 0 20 20" fill="none" xmlns="http://www.w3.org/2000/svg">
<g clip-path="url(#clip0_443_7869)">
<path d="M9.12207 1.60979C9.50107 0.914846 10.4989 0.914845 10.8779 1.60979L12.888 5.29546C13.0318 5.55919 13.2866 5.74429 13.5818 5.79958L17.7083 6.57232C18.4863 6.71802 18.7947 7.66704 18.2509 8.24224L15.3667 11.2929C15.1603 11.5111 15.063 11.8106 15.1017 12.1085L15.6419 16.2718C15.7438 17.0568 14.9365 17.6433 14.2214 17.3039L10.4288 15.5036C10.1575 15.3747 9.84255 15.3747 9.57117 15.5036L5.77861 17.3039C5.06352 17.6433 4.25624 17.0568 4.3581 16.2718L4.89832 12.1085C4.93697 11.8106 4.83966 11.5111 4.63329 11.2929L1.74914 8.24224C1.20533 7.66704 1.51368 6.71802 2.29173 6.57232L6.41816 5.79958C6.71342 5.74429 6.96819 5.55919 7.11202 5.29546L9.12207 1.60979Z" fill="#FFCB15"/>
</g>
<defs>
<clipPath id="clip0_443_7869">
<rect width="20" height="20" fill="white"/>
</clipPath>
</defs>
</svg>
