<svg width="32" height="32" viewBox="0 0 32 32" fill="none" xmlns="http://www.w3.org/2000/svg">
<path d="M22.2809 19.5855C22.1594 19.7169 22.015 19.8211 21.8561 19.8923C21.6972 19.9634 21.5269 20 21.3548 20C21.1828 20 21.0125 19.9634 20.8536 19.8923C20.6947 19.8211 20.5503 19.7169 20.4288 19.5855L15.3323 14.086L10.2357 19.5855C9.99015 19.8505 9.65704 19.9994 9.30971 19.9994C8.96237 19.9994 8.62926 19.8505 8.38366 19.5855C8.13806 19.3205 8.00008 18.961 8.00008 18.5862C8.00008 18.2114 8.13806 17.852 8.38366 17.587L14.4128 11.0812C14.5343 10.9498 14.6787 10.8455 14.8376 10.7744C14.9965 10.7033 15.1668 10.6667 15.3388 10.6667C15.5109 10.6667 15.6812 10.7033 15.8401 10.7744C15.999 10.8455 16.1434 10.9498 16.2649 11.0812L22.294 17.587C22.7932 18.1256 22.7932 19.0327 22.2809 19.5855Z" fill="#307BFD"/>
</svg>
