<svg width="24" height="24" viewBox="0 0 24 24" fill="none" xmlns="http://www.w3.org/2000/svg">
<path fill-rule="evenodd" clip-rule="evenodd" d="M9.429 8.96876H13.143V10.8188C13.678 9.75476 15.05 8.79876 17.111 8.79876C21.062 8.79876 22 10.9168 22 14.8028V21.9998H18V15.6878C18 13.4748 17.465 12.2268 16.103 12.2268C14.214 12.2268 13.429 13.5718 13.429 15.6868V21.9998H9.429V8.96876ZM2.57 21.8298H6.57V8.79876H2.57V21.8298ZM7.143 4.54976C7.14315 4.88503 7.07666 5.21699 6.94739 5.52634C6.81812 5.8357 6.62865 6.11627 6.39 6.35176C5.9064 6.83238 5.25181 7.10141 4.57 7.09976C3.88939 7.0993 3.23631 6.83096 2.752 6.35276C2.51421 6.11647 2.32539 5.83558 2.19634 5.52619C2.0673 5.2168 2.00058 4.88498 2 4.54976C2 3.87276 2.27 3.22476 2.753 2.74676C3.23689 2.26791 3.89024 1.99946 4.571 1.99976C5.253 1.99976 5.907 2.26876 6.39 2.74676C6.872 3.22476 7.143 3.87276 7.143 4.54976Z" fill="white"/>
</svg>
