<svg width="40" height="40" viewBox="0 0 40 40" fill="none" xmlns="http://www.w3.org/2000/svg">
<rect width="40" height="40" rx="20" fill="#EBF2FF"/>
<path d="M27 20C27.0004 19.8302 26.9569 19.6632 26.8736 19.5153C26.7904 19.3673 26.6703 19.2434 26.525 19.1556L17.52 13.6469C17.3682 13.5539 17.1943 13.5031 17.0163 13.4999C16.8383 13.4966 16.6627 13.5408 16.5075 13.6281C16.3538 13.714 16.2258 13.8394 16.1366 13.9912C16.0474 14.143 16.0003 14.3158 16 14.4919V25.5081C16.0003 25.6842 16.0474 25.857 16.1366 26.0088C16.2258 26.1606 16.3538 26.2859 16.5075 26.3719C16.6627 26.4592 16.8383 26.5034 17.0163 26.5001C17.1943 26.4968 17.3682 26.4461 17.52 26.3531L26.525 20.8444C26.6703 20.7566 26.7904 20.6327 26.8736 20.4847C26.9569 20.3367 27.0004 20.1698 27 20Z" fill="#307BFD"/>
</svg>
