<svg width="24" height="24" viewBox="0 0 24 24" fill="none" xmlns="http://www.w3.org/2000/svg">
<path d="M7.2894 9.31088C7.38054 9.21233 7.4888 9.13415 7.60798 9.0808C7.72715 9.02746 7.85491 9 7.98393 9C8.11296 9 8.24071 9.02746 8.35989 9.0808C8.47907 9.13415 8.58733 9.21233 8.67847 9.31088L12.5009 13.4355L16.3233 9.31088C16.5075 9.11212 16.7573 9.00045 17.0178 9.00045C17.2783 9.00045 17.5281 9.11212 17.7123 9.31088C17.8965 9.50964 18 9.77923 18 10.0603C18 10.3414 17.8965 10.611 17.7123 10.8098L13.1905 15.6891C13.0993 15.7877 12.9911 15.8659 12.8719 15.9192C12.7527 15.9725 12.625 16 12.4959 16C12.3669 16 12.2392 15.9725 12.12 15.9192C12.0008 15.8659 11.8925 15.7877 11.8014 15.6891L7.27955 10.8098C6.90519 10.4058 6.90519 9.72547 7.2894 9.31088Z" fill="#111111"/>
</svg>
