<svg width="152" height="47" viewBox="0 0 152 47" fill="none" xmlns="http://www.w3.org/2000/svg">
<rect x="0.5" width="151" height="47" rx="8" fill="#111111"/>
<g clip-path="url(#clip0_161_8496)">
<path d="M45.3792 24.438C45.4224 29.1203 49.4553 30.6785 49.5 30.6984C49.4659 30.8083 48.8556 32.9189 47.3753 35.0991C46.0956 36.9839 44.7674 38.8619 42.6752 38.9008C40.6193 38.9389 39.9583 37.6722 37.6079 37.6722C35.2582 37.6722 34.5237 38.8619 32.5776 38.9389C30.5581 39.0159 29.0203 36.9007 27.7299 35.0228C25.0933 31.1814 23.0784 24.1679 25.7839 19.4336C27.128 17.0826 29.5299 15.5938 32.137 15.5556C34.1201 15.5175 35.992 16.9002 37.2043 16.9002C38.4158 16.9002 40.6905 15.2374 43.0818 15.4816C44.0829 15.5236 46.8929 15.8891 48.6973 18.5508C48.5519 18.6416 45.3444 20.5233 45.3792 24.438ZM41.5155 12.9402C42.5877 11.6323 43.3094 9.81159 43.1125 8C41.567 8.0626 39.6982 9.03784 38.5897 10.345C37.5962 11.5026 36.7261 13.3553 36.9609 15.1311C38.6835 15.2654 40.4433 14.2489 41.5155 12.9402Z" fill="white"/>
</g>
<path d="M62 18H60.2045V12.1818H62.0795C62.6439 12.1818 63.1269 12.2983 63.5284 12.5312C63.9299 12.7623 64.2377 13.0947 64.4517 13.5284C64.6657 13.9602 64.7727 14.4773 64.7727 15.0795C64.7727 15.6856 64.6648 16.2074 64.4489 16.6449C64.233 17.0805 63.9186 17.4157 63.5057 17.6506C63.0928 17.8835 62.5909 18 62 18ZM60.9091 17.375H61.9545C62.4356 17.375 62.8343 17.2822 63.1506 17.0966C63.4669 16.911 63.7027 16.6468 63.858 16.304C64.0133 15.9612 64.0909 15.553 64.0909 15.0795C64.0909 14.6098 64.0142 14.2055 63.8608 13.8665C63.7074 13.5256 63.4782 13.2642 63.1733 13.0824C62.8684 12.8987 62.4886 12.8068 62.0341 12.8068H60.9091V17.375ZM67.6364 18.0909C67.2424 18.0909 66.8968 17.9972 66.5994 17.8097C66.304 17.6222 66.0729 17.3598 65.9062 17.0227C65.7415 16.6856 65.6591 16.2917 65.6591 15.8409C65.6591 15.3864 65.7415 14.9896 65.9062 14.6506C66.0729 14.3116 66.304 14.0483 66.5994 13.8608C66.8968 13.6733 67.2424 13.5795 67.6364 13.5795C68.0303 13.5795 68.375 13.6733 68.6705 13.8608C68.9678 14.0483 69.1989 14.3116 69.3636 14.6506C69.5303 14.9896 69.6136 15.3864 69.6136 15.8409C69.6136 16.2917 69.5303 16.6856 69.3636 17.0227C69.1989 17.3598 68.9678 17.6222 68.6705 17.8097C68.375 17.9972 68.0303 18.0909 67.6364 18.0909ZM67.6364 17.4886C67.9356 17.4886 68.1818 17.4119 68.375 17.2585C68.5682 17.1051 68.7112 16.9034 68.804 16.6534C68.8968 16.4034 68.9432 16.1326 68.9432 15.8409C68.9432 15.5492 68.8968 15.2775 68.804 15.0256C68.7112 14.7737 68.5682 14.5701 68.375 14.4148C68.1818 14.2595 67.9356 14.1818 67.6364 14.1818C67.3371 14.1818 67.0909 14.2595 66.8977 14.4148C66.7045 14.5701 66.5616 14.7737 66.4688 15.0256C66.3759 15.2775 66.3295 15.5492 66.3295 15.8409C66.3295 16.1326 66.3759 16.4034 66.4688 16.6534C66.5616 16.9034 66.7045 17.1051 66.8977 17.2585C67.0909 17.4119 67.3371 17.4886 67.6364 17.4886ZM71.4773 18L70.1477 13.6364H70.8523L71.7955 16.9773H71.8409L72.7727 13.6364H73.4886L74.4091 16.9659H74.4545L75.3977 13.6364H76.1023L74.7727 18H74.1136L73.1591 14.6477H73.0909L72.1364 18H71.4773ZM77.6591 15.375V18H76.9886V13.6364H77.6364V14.3182H77.6932C77.7955 14.0966 77.9508 13.9186 78.1591 13.7841C78.3674 13.6477 78.6364 13.5795 78.9659 13.5795C79.2614 13.5795 79.5199 13.6402 79.7415 13.7614C79.9631 13.8807 80.1354 14.0625 80.2585 14.3068C80.3816 14.5492 80.4432 14.8561 80.4432 15.2273V18H79.7727V15.2727C79.7727 14.9299 79.6837 14.6629 79.5057 14.4716C79.3277 14.2784 79.0833 14.1818 78.7727 14.1818C78.5587 14.1818 78.3674 14.2282 78.1989 14.321C78.0322 14.4138 77.9006 14.5492 77.804 14.7273C77.7074 14.9053 77.6591 15.1212 77.6591 15.375ZM82.3388 12.1818V18H81.6683V12.1818H82.3388ZM85.3395 18.0909C84.9455 18.0909 84.5999 17.9972 84.3026 17.8097C84.0071 17.6222 83.776 17.3598 83.6094 17.0227C83.4446 16.6856 83.3622 16.2917 83.3622 15.8409C83.3622 15.3864 83.4446 14.9896 83.6094 14.6506C83.776 14.3116 84.0071 14.0483 84.3026 13.8608C84.5999 13.6733 84.9455 13.5795 85.3395 13.5795C85.7334 13.5795 86.0781 13.6733 86.3736 13.8608C86.6709 14.0483 86.902 14.3116 87.0668 14.6506C87.2334 14.9896 87.3168 15.3864 87.3168 15.8409C87.3168 16.2917 87.2334 16.6856 87.0668 17.0227C86.902 17.3598 86.6709 17.6222 86.3736 17.8097C86.0781 17.9972 85.7334 18.0909 85.3395 18.0909ZM85.3395 17.4886C85.6387 17.4886 85.8849 17.4119 86.0781 17.2585C86.2713 17.1051 86.4143 16.9034 86.5071 16.6534C86.5999 16.4034 86.6463 16.1326 86.6463 15.8409C86.6463 15.5492 86.5999 15.2775 86.5071 15.0256C86.4143 14.7737 86.2713 14.5701 86.0781 14.4148C85.8849 14.2595 85.6387 14.1818 85.3395 14.1818C85.0402 14.1818 84.794 14.2595 84.6009 14.4148C84.4077 14.5701 84.2647 14.7737 84.1719 15.0256C84.0791 15.2775 84.0327 15.5492 84.0327 15.8409C84.0327 16.1326 84.0791 16.4034 84.1719 16.6534C84.2647 16.9034 84.4077 17.1051 84.6009 17.2585C84.794 17.4119 85.0402 17.4886 85.3395 17.4886ZM89.6243 18.1023C89.3478 18.1023 89.0968 18.0502 88.8714 17.946C88.6461 17.84 88.4671 17.6875 88.3345 17.4886C88.2019 17.2879 88.1357 17.0455 88.1357 16.7614C88.1357 16.5114 88.1849 16.3087 88.2834 16.1534C88.3819 15.9962 88.5135 15.8731 88.6783 15.7841C88.843 15.6951 89.0249 15.6288 89.2237 15.5852C89.4245 15.5398 89.6262 15.5038 89.8288 15.4773C90.094 15.4432 90.3089 15.4176 90.4737 15.4006C90.6404 15.3816 90.7616 15.3504 90.8374 15.3068C90.915 15.2633 90.9538 15.1875 90.9538 15.0795V15.0568C90.9538 14.7765 90.8771 14.5587 90.7237 14.4034C90.5722 14.2481 90.3421 14.1705 90.0334 14.1705C89.7133 14.1705 89.4624 14.2405 89.2805 14.3807C89.0987 14.5208 88.9709 14.6705 88.897 14.8295L88.2607 14.6023C88.3743 14.3371 88.5258 14.1307 88.7152 13.983C88.9065 13.8333 89.1148 13.7292 89.3402 13.6705C89.5675 13.6098 89.791 13.5795 90.0107 13.5795C90.1508 13.5795 90.3118 13.5966 90.4936 13.6307C90.6773 13.6629 90.8544 13.7301 91.0249 13.8324C91.1972 13.9347 91.3402 14.089 91.4538 14.2955C91.5675 14.5019 91.6243 14.7784 91.6243 15.125V18H90.9538V17.4091H90.9197C90.8743 17.5038 90.7985 17.6051 90.6925 17.7131C90.5864 17.821 90.4453 17.9129 90.2692 17.9886C90.093 18.0644 89.8781 18.1023 89.6243 18.1023ZM89.7266 17.5C89.9917 17.5 90.2152 17.4479 90.397 17.3438C90.5807 17.2396 90.719 17.1051 90.8118 16.9403C90.9065 16.7756 90.9538 16.6023 90.9538 16.4205V15.8068C90.9254 15.8409 90.8629 15.8722 90.7663 15.9006C90.6716 15.9271 90.5618 15.9508 90.4368 15.9716C90.3137 15.9905 90.1934 16.0076 90.076 16.0227C89.9605 16.036 89.8667 16.0473 89.7947 16.0568C89.6205 16.0795 89.4576 16.1165 89.3061 16.1676C89.1565 16.2169 89.0353 16.2917 88.9425 16.392C88.8516 16.4905 88.8061 16.625 88.8061 16.7955C88.8061 17.0284 88.8923 17.2045 89.0646 17.3239C89.2389 17.4413 89.4595 17.5 89.7266 17.5ZM94.4957 18.0909C94.1321 18.0909 93.8111 17.9991 93.5327 17.8153C93.2543 17.6297 93.0365 17.3684 92.8793 17.0312C92.7221 16.6922 92.6435 16.2917 92.6435 15.8295C92.6435 15.3712 92.7221 14.9735 92.8793 14.6364C93.0365 14.2992 93.2552 14.0388 93.5355 13.8551C93.8158 13.6714 94.1397 13.5795 94.5071 13.5795C94.7912 13.5795 95.0156 13.6269 95.1804 13.7216C95.3471 13.8144 95.474 13.9205 95.5611 14.0398C95.6501 14.1572 95.7192 14.2538 95.7685 14.3295H95.8253V12.1818H96.4957V18H95.848V17.3295H95.7685C95.7192 17.4091 95.6491 17.5095 95.5582 17.6307C95.4673 17.75 95.3376 17.857 95.169 17.9517C95.0005 18.0445 94.776 18.0909 94.4957 18.0909ZM94.5866 17.4886C94.8556 17.4886 95.0829 17.4186 95.2685 17.2784C95.4541 17.1364 95.5952 16.9403 95.6918 16.6903C95.7884 16.4384 95.8366 16.1477 95.8366 15.8182C95.8366 15.4924 95.7893 15.2074 95.6946 14.9631C95.5999 14.7169 95.4598 14.5256 95.2741 14.3892C95.0885 14.2509 94.8594 14.1818 94.5866 14.1818C94.3026 14.1818 94.0658 14.2547 93.8764 14.4006C93.6889 14.5445 93.5478 14.7405 93.4531 14.9886C93.3603 15.2348 93.3139 15.5114 93.3139 15.8182C93.3139 16.1288 93.3613 16.411 93.456 16.6648C93.5526 16.9167 93.6946 17.1174 93.8821 17.267C94.0715 17.4148 94.3063 17.4886 94.5866 17.4886ZM101.839 18.0909C101.446 18.0909 101.1 17.9972 100.803 17.8097C100.507 17.6222 100.276 17.3598 100.109 17.0227C99.9446 16.6856 99.8622 16.2917 99.8622 15.8409C99.8622 15.3864 99.9446 14.9896 100.109 14.6506C100.276 14.3116 100.507 14.0483 100.803 13.8608C101.1 13.6733 101.446 13.5795 101.839 13.5795C102.233 13.5795 102.578 13.6733 102.874 13.8608C103.171 14.0483 103.402 14.3116 103.567 14.6506C103.733 14.9896 103.817 15.3864 103.817 15.8409C103.817 16.2917 103.733 16.6856 103.567 17.0227C103.402 17.3598 103.171 17.6222 102.874 17.8097C102.578 17.9972 102.233 18.0909 101.839 18.0909ZM101.839 17.4886C102.139 17.4886 102.385 17.4119 102.578 17.2585C102.771 17.1051 102.914 16.9034 103.007 16.6534C103.1 16.4034 103.146 16.1326 103.146 15.8409C103.146 15.5492 103.1 15.2775 103.007 15.0256C102.914 14.7737 102.771 14.5701 102.578 14.4148C102.385 14.2595 102.139 14.1818 101.839 14.1818C101.54 14.1818 101.294 14.2595 101.101 14.4148C100.908 14.5701 100.765 14.7737 100.672 15.0256C100.579 15.2775 100.533 15.5492 100.533 15.8409C100.533 16.1326 100.579 16.4034 100.672 16.6534C100.765 16.9034 100.908 17.1051 101.101 17.2585C101.294 17.4119 101.54 17.4886 101.839 17.4886ZM105.511 15.375V18H104.84V13.6364H105.488V14.3182H105.545C105.647 14.0966 105.802 13.9186 106.011 13.7841C106.219 13.6477 106.488 13.5795 106.817 13.5795C107.113 13.5795 107.371 13.6402 107.593 13.7614C107.815 13.8807 107.987 14.0625 108.11 14.3068C108.233 14.5492 108.295 14.8561 108.295 15.2273V18H107.624V15.2727C107.624 14.9299 107.535 14.6629 107.357 14.4716C107.179 14.2784 106.935 14.1818 106.624 14.1818C106.41 14.1818 106.219 14.2282 106.05 14.321C105.884 14.4138 105.752 14.5492 105.656 14.7273C105.559 14.9053 105.511 15.1212 105.511 15.375ZM113.668 13.6364V14.2045H111.406V13.6364H113.668ZM112.065 12.5909H112.736V16.75C112.736 16.9394 112.763 17.0814 112.818 17.1761C112.875 17.2689 112.947 17.3314 113.034 17.3636C113.123 17.3939 113.217 17.4091 113.315 17.4091C113.389 17.4091 113.45 17.4053 113.497 17.3977C113.545 17.3883 113.582 17.3807 113.611 17.375L113.747 17.9773C113.702 17.9943 113.638 18.0114 113.557 18.0284C113.475 18.0473 113.372 18.0568 113.247 18.0568C113.058 18.0568 112.872 18.0161 112.69 17.9347C112.51 17.8532 112.361 17.7292 112.241 17.5625C112.124 17.3958 112.065 17.1856 112.065 16.9318V12.5909ZM115.44 15.375V18H114.77V12.1818H115.44V14.3182H115.497C115.599 14.0928 115.753 13.9138 115.957 13.7812C116.164 13.6468 116.438 13.5795 116.781 13.5795C117.079 13.5795 117.339 13.6392 117.562 13.7585C117.786 13.8759 117.959 14.0568 118.082 14.3011C118.207 14.5436 118.27 14.8523 118.27 15.2273V18H117.599V15.2727C117.599 14.9261 117.509 14.6581 117.33 14.4688C117.152 14.2775 116.904 14.1818 116.588 14.1818C116.368 14.1818 116.171 14.2282 115.997 14.321C115.825 14.4138 115.688 14.5492 115.588 14.7273C115.49 14.9053 115.44 15.1212 115.44 15.375ZM121.326 18.0909C120.906 18.0909 120.543 17.9981 120.238 17.8125C119.935 17.625 119.701 17.3636 119.536 17.0284C119.373 16.6913 119.292 16.2992 119.292 15.8523C119.292 15.4053 119.373 15.0114 119.536 14.6705C119.701 14.3277 119.93 14.0606 120.224 13.8693C120.519 13.6761 120.864 13.5795 121.258 13.5795C121.485 13.5795 121.71 13.6174 121.931 13.6932C122.153 13.7689 122.354 13.892 122.536 14.0625C122.718 14.2311 122.863 14.4545 122.971 14.733C123.079 15.0114 123.133 15.3542 123.133 15.7614V16.0455H119.769V15.4659H122.451C122.451 15.2197 122.402 15 122.303 14.8068C122.207 14.6136 122.068 14.4612 121.888 14.3494C121.71 14.2377 121.5 14.1818 121.258 14.1818C120.991 14.1818 120.76 14.2481 120.565 14.3807C120.371 14.5114 120.223 14.6818 120.119 14.892C120.014 15.1023 119.962 15.3277 119.962 15.5682V15.9545C119.962 16.2841 120.019 16.5634 120.133 16.7926C120.248 17.0199 120.408 17.1932 120.613 17.3125C120.817 17.4299 121.055 17.4886 121.326 17.4886C121.502 17.4886 121.661 17.464 121.803 17.4148C121.947 17.3636 122.071 17.2879 122.175 17.1875C122.28 17.0852 122.36 16.9583 122.417 16.8068L123.065 16.9886C122.996 17.2083 122.882 17.4015 122.721 17.5682C122.56 17.733 122.361 17.8617 122.124 17.9545C121.888 18.0455 121.621 18.0909 121.326 18.0909Z" fill="white"/>
<path d="M61.8118 34H59.843L63.4276 23.8182H65.7045L69.294 34H67.3253L64.6058 25.9062H64.5263L61.8118 34ZM61.8764 30.0078H67.2457V31.4893H61.8764V30.0078ZM70.5556 36.8636V26.3636H72.3255V27.6264H72.4299C72.5227 27.4408 72.6536 27.2436 72.8226 27.0348C72.9917 26.8227 73.2203 26.642 73.5087 26.4929C73.7971 26.3404 74.165 26.2642 74.6124 26.2642C75.2024 26.2642 75.7343 26.415 76.2083 26.7166C76.6855 27.0149 77.0634 27.4574 77.3418 28.044C77.6235 28.6274 77.7644 29.3433 77.7644 30.1918C77.7644 31.0303 77.6268 31.7429 77.3517 32.3295C77.0766 32.9162 76.7021 33.3636 76.2282 33.6719C75.7542 33.9801 75.2173 34.1342 74.6174 34.1342C74.1799 34.1342 73.8169 34.0613 73.5286 33.9155C73.2402 33.7696 73.0082 33.594 72.8326 33.3885C72.6602 33.1797 72.526 32.9825 72.4299 32.7969H72.3553V36.8636H70.5556ZM72.3205 30.1818C72.3205 30.6757 72.3901 31.1082 72.5293 31.4794C72.6718 31.8506 72.8757 32.1406 73.1408 32.3494C73.4093 32.5549 73.7341 32.6577 74.1152 32.6577C74.513 32.6577 74.8461 32.5516 75.1145 32.3395C75.383 32.1241 75.5852 31.8307 75.7211 31.4595C75.8603 31.085 75.9299 30.6591 75.9299 30.1818C75.9299 29.7079 75.8619 29.2869 75.726 28.919C75.5901 28.5511 75.388 28.2628 75.1195 28.054C74.851 27.8452 74.5163 27.7408 74.1152 27.7408C73.7308 27.7408 73.4043 27.8419 73.1358 28.044C72.8674 28.2462 72.6635 28.5296 72.5243 28.8942C72.3884 29.2588 72.3205 29.688 72.3205 30.1818ZM79.3056 36.8636V26.3636H81.0755V27.6264H81.1799C81.2727 27.4408 81.4036 27.2436 81.5726 27.0348C81.7417 26.8227 81.9703 26.642 82.2587 26.4929C82.5471 26.3404 82.915 26.2642 83.3624 26.2642C83.9524 26.2642 84.4843 26.415 84.9583 26.7166C85.4355 27.0149 85.8134 27.4574 86.0918 28.044C86.3735 28.6274 86.5144 29.3433 86.5144 30.1918C86.5144 31.0303 86.3768 31.7429 86.1017 32.3295C85.8266 32.9162 85.4521 33.3636 84.9782 33.6719C84.5042 33.9801 83.9673 34.1342 83.3674 34.1342C82.9299 34.1342 82.5669 34.0613 82.2786 33.9155C81.9902 33.7696 81.7582 33.594 81.5826 33.3885C81.4102 33.1797 81.276 32.9825 81.1799 32.7969H81.1053V36.8636H79.3056ZM81.0705 30.1818C81.0705 30.6757 81.1401 31.1082 81.2793 31.4794C81.4218 31.8506 81.6257 32.1406 81.8908 32.3494C82.1593 32.5549 82.4841 32.6577 82.8652 32.6577C83.263 32.6577 83.5961 32.5516 83.8645 32.3395C84.133 32.1241 84.3352 31.8307 84.4711 31.4595C84.6103 31.085 84.6799 30.6591 84.6799 30.1818C84.6799 29.7079 84.6119 29.2869 84.476 28.919C84.3401 28.5511 84.138 28.2628 83.8695 28.054C83.601 27.8452 83.2663 27.7408 82.8652 27.7408C82.4808 27.7408 82.1543 27.8419 81.8858 28.044C81.6174 28.2462 81.4135 28.5296 81.2743 28.8942C81.1384 29.2588 81.0705 29.688 81.0705 30.1818ZM97.1412 26.6172C97.0948 26.183 96.8992 25.8449 96.5545 25.603C96.2131 25.361 95.769 25.2401 95.2221 25.2401C94.8377 25.2401 94.5079 25.2981 94.2328 25.4141C93.9577 25.5301 93.7472 25.6875 93.6014 25.8864C93.4556 26.0852 93.381 26.3123 93.3777 26.5675C93.3777 26.7796 93.4257 26.9635 93.5218 27.1193C93.6213 27.2751 93.7555 27.4077 93.9245 27.517C94.0936 27.6231 94.2808 27.7126 94.4863 27.7855C94.6918 27.8584 94.899 27.9197 95.1078 27.9695L96.0623 28.2081C96.4468 28.2976 96.8163 28.4186 97.171 28.571C97.5289 28.7235 97.8488 28.9157 98.1305 29.1477C98.4155 29.3797 98.6409 29.6598 98.8066 29.9879C98.9724 30.3161 99.0552 30.7005 99.0552 31.1413C99.0552 31.7379 98.9028 32.2633 98.5978 32.7173C98.2929 33.1681 97.8521 33.5211 97.2754 33.7763C96.702 34.0282 96.0076 34.1541 95.1923 34.1541C94.4002 34.1541 93.7124 34.0315 93.1291 33.7862C92.5491 33.541 92.095 33.183 91.7669 32.7124C91.4421 32.2417 91.2664 31.6683 91.2399 30.9922H93.0545C93.081 31.3468 93.1904 31.6418 93.3826 31.8771C93.5749 32.1125 93.8251 32.2881 94.1333 32.4041C94.4449 32.5201 94.7929 32.5781 95.1774 32.5781C95.5784 32.5781 95.9297 32.5185 96.2314 32.3991C96.5363 32.2765 96.7749 32.1075 96.9473 31.892C97.1196 31.6733 97.2074 31.4181 97.2108 31.1264C97.2074 30.8613 97.1296 30.6425 96.9771 30.4702C96.8246 30.2945 96.6109 30.1487 96.3358 30.0327C96.064 29.9134 95.7458 29.8073 95.3812 29.7145L94.2228 29.4162C93.3843 29.2008 92.7214 28.8743 92.2342 28.4368C91.7503 27.996 91.5083 27.411 91.5083 26.6818C91.5083 26.0819 91.6708 25.5566 91.9956 25.1058C92.3237 24.6551 92.7695 24.3054 93.3329 24.0568C93.8964 23.8049 94.5344 23.679 95.247 23.679C95.9695 23.679 96.6026 23.8049 97.1461 24.0568C97.693 24.3054 98.1222 24.6518 98.4338 25.0959C98.7453 25.5367 98.9061 26.0438 98.916 26.6172H97.1412ZM104.433 26.3636V27.7557H100.043V26.3636H104.433ZM101.127 24.5341H102.927V31.7031C102.927 31.9451 102.963 32.1307 103.036 32.2599C103.112 32.3859 103.212 32.4721 103.335 32.5185C103.457 32.5649 103.593 32.5881 103.742 32.5881C103.855 32.5881 103.958 32.5798 104.05 32.5632C104.147 32.5466 104.219 32.5317 104.269 32.5185L104.572 33.9254C104.476 33.9586 104.339 33.995 104.16 34.0348C103.984 34.0746 103.769 34.0978 103.513 34.1044C103.063 34.1177 102.657 34.0497 102.295 33.9006C101.934 33.7481 101.647 33.5128 101.435 33.1946C101.227 32.8764 101.124 32.4787 101.127 32.0014V24.5341ZM109.187 34.1491C108.442 34.1491 107.795 33.9851 107.248 33.657C106.702 33.3288 106.277 32.8698 105.976 32.2798C105.677 31.6899 105.528 31.0005 105.528 30.2116C105.528 29.4228 105.677 28.7318 105.976 28.1385C106.277 27.5452 106.702 27.0845 107.248 26.7564C107.795 26.4283 108.442 26.2642 109.187 26.2642C109.933 26.2642 110.579 26.4283 111.126 26.7564C111.673 27.0845 112.096 27.5452 112.394 28.1385C112.696 28.7318 112.846 29.4228 112.846 30.2116C112.846 31.0005 112.696 31.6899 112.394 32.2798C112.096 32.8698 111.673 33.3288 111.126 33.657C110.579 33.9851 109.933 34.1491 109.187 34.1491ZM109.197 32.7074C109.602 32.7074 109.94 32.5964 110.211 32.3743C110.483 32.1489 110.685 31.8473 110.818 31.4695C110.954 31.0916 111.022 30.6707 111.022 30.2067C111.022 29.7393 110.954 29.3168 110.818 28.9389C110.685 28.5578 110.483 28.2545 110.211 28.0291C109.94 27.8037 109.602 27.6911 109.197 27.6911C108.783 27.6911 108.438 27.8037 108.163 28.0291C107.891 28.2545 107.688 28.5578 107.552 28.9389C107.419 29.3168 107.353 29.7393 107.353 30.2067C107.353 30.6707 107.419 31.0916 107.552 31.4695C107.688 31.8473 107.891 32.1489 108.163 32.3743C108.438 32.5964 108.783 32.7074 109.197 32.7074ZM114.374 34V26.3636H116.119V27.6364H116.199C116.338 27.1955 116.576 26.8558 116.914 26.6172C117.256 26.3752 117.645 26.2543 118.083 26.2543C118.182 26.2543 118.293 26.2592 118.416 26.2692C118.542 26.2758 118.646 26.2874 118.729 26.304V27.9595C118.653 27.933 118.532 27.9098 118.366 27.8899C118.204 27.8667 118.046 27.8551 117.894 27.8551C117.566 27.8551 117.271 27.9264 117.009 28.0689C116.75 28.2081 116.547 28.402 116.397 28.6506C116.248 28.8991 116.174 29.1858 116.174 29.5107V34H114.374ZM122.991 34.1491C122.225 34.1491 121.564 33.9901 121.007 33.6719C120.454 33.3504 120.028 32.8963 119.73 32.3097C119.431 31.7197 119.282 31.0253 119.282 30.2266C119.282 29.4411 119.431 28.7517 119.73 28.1584C120.031 27.5618 120.452 27.0978 120.992 26.7663C121.533 26.4316 122.167 26.2642 122.896 26.2642C123.367 26.2642 123.811 26.3404 124.229 26.4929C124.65 26.642 125.021 26.8741 125.343 27.1889C125.667 27.5038 125.923 27.9048 126.108 28.392C126.294 28.8759 126.387 29.4527 126.387 30.1222V30.674H120.127V29.4609H124.661C124.658 29.1162 124.584 28.8097 124.438 28.5412C124.292 28.2694 124.088 28.0556 123.826 27.8999C123.568 27.7441 123.266 27.6662 122.921 27.6662C122.553 27.6662 122.23 27.7557 121.952 27.9347C121.673 28.1103 121.456 28.3423 121.301 28.6307C121.148 28.9157 121.07 29.2289 121.067 29.5703V30.6293C121.067 31.0734 121.148 31.4545 121.311 31.7727C121.473 32.0876 121.7 32.3295 121.992 32.4986C122.283 32.6643 122.625 32.7472 123.016 32.7472C123.278 32.7472 123.515 32.7107 123.727 32.6378C123.939 32.5616 124.123 32.4505 124.279 32.3047C124.434 32.1589 124.552 31.9782 124.632 31.7628L126.312 31.9517C126.206 32.3958 126.004 32.7836 125.705 33.1151C125.41 33.4432 125.033 33.6984 124.572 33.8807C124.111 34.0597 123.584 34.1491 122.991 34.1491Z" fill="white"/>
<defs>
<clipPath id="clip0_161_8496">
<rect width="25" height="31" fill="white" transform="translate(24.5 8)"/>
</clipPath>
</defs>
</svg>
