<svg width="41" height="41" viewBox="0 0 41 41" fill="none" xmlns="http://www.w3.org/2000/svg">
<g clip-path="url(#clip0_443_12096)">
<g clip-path="url(#clip1_443_12096)">
<path d="M14.2439 21.4401L18.6942 25.8904L28.7073 14.7647M6.08104 8.23238C8.9543 8.44294 13.7241 7.80397 18.6281 4.15758C20.1609 3.01791 22.3113 3.05454 23.8627 4.16877C26.3336 5.94349 30.2482 7.83424 36.3166 8.16595C36.5531 8.17888 36.7433 8.37342 36.7433 8.61025V15.9173C36.7433 25.0799 31.86 33.548 23.9297 38.1375C22.2209 39.1264 20.1137 39.1264 18.4049 38.1375C10.4746 33.548 5.59134 25.0799 5.59134 15.9173V8.68044C5.59134 8.41729 5.81859 8.21315 6.08104 8.23238Z" stroke="#307BFD" stroke-width="2.59599" stroke-linecap="round" stroke-linejoin="round"/>
</g>
</g>
<defs>
<clipPath id="clip0_443_12096">
<rect width="40" height="40" fill="white" transform="translate(0.666656 0.624512)"/>
</clipPath>
<clipPath id="clip1_443_12096">
<rect width="40" height="40" fill="white" transform="translate(1.16666 0.624512)"/>
</clipPath>
</defs>
</svg>
