<svg width="24" height="24" viewBox="0 0 24 24" fill="none" xmlns="http://www.w3.org/2000/svg">
<g clip-path="url(#clip0_406_7834)">
<rect x="-5" width="34" height="24" rx="2" fill="white"/>
<mask id="mask0_406_7834" style="mask-type:luminance" maskUnits="userSpaceOnUse" x="-5" y="0" width="34" height="24">
<rect x="-5" width="34" height="24" rx="2" fill="white"/>
</mask>
<g mask="url(#mask0_406_7834)">
<rect x="-5" width="34" height="24" fill="#0A17A7"/>
<path fill-rule="evenodd" clip-rule="evenodd" d="M-6.55802 -2.29956L7.95238 7.37268V-1.5999H16.0476V7.37172L30.5566 -2.29955L32.3673 0.353369L20.8956 8.0001H29V16.0001H20.8953L32.3673 23.647L30.5566 26.2999L16.0476 16.6286V25.6001H7.95238V16.6277L-6.55801 26.2999L-8.36873 23.647L3.10323 16.0001H-5V8.0001H3.10298L-8.36874 0.35336L-6.55802 -2.29956Z" fill="white"/>
<path fill-rule="evenodd" clip-rule="evenodd" d="M33.4421 -2.65646C33.5855 -2.44115 33.525 -2.15177 33.3072 -2.01012L17.9278 7.98852C17.7099 8.13017 17.4171 8.07045 17.2737 7.85513C17.1304 7.63982 17.1908 7.35044 17.4087 7.20879L32.7881 -2.78985C33.006 -2.9315 33.2988 -2.87178 33.4421 -2.65646Z" fill="#DB1F35"/>
<path fill-rule="evenodd" clip-rule="evenodd" d="M33.4796 25.8813C33.6254 25.6676 33.5683 25.3775 33.352 25.2335L19.5652 16.0501C19.3489 15.906 19.0554 15.9625 18.9097 16.1762C18.7639 16.3899 18.8211 16.68 19.0373 16.824L32.8241 26.0074C33.0404 26.1515 33.3339 26.095 33.4796 25.8813Z" fill="#DB1F35"/>
<path fill-rule="evenodd" clip-rule="evenodd" d="M-10.052 -2.26601C-9.90622 -2.47974 -9.61274 -2.53623 -9.39647 -2.3922L4.98434 7.18554C5.20061 7.32958 5.25777 7.6196 5.11202 7.83333C4.96627 8.04706 4.67279 8.10355 4.45652 7.95951L-9.92429 -1.61822C-10.1406 -1.76226 -10.1977 -2.05229 -10.052 -2.26601Z" fill="#DB1F35"/>
<path fill-rule="evenodd" clip-rule="evenodd" d="M-10.0539 27.0305C-9.90979 27.2452 -9.61675 27.3039 -9.39939 27.1615L6.54117 16.7148C6.75852 16.5723 6.81787 16.2827 6.67373 16.0679C6.5296 15.8532 6.23655 15.7945 6.0192 15.9369L-9.92136 26.3836C-10.1387 26.5261 -10.1981 26.8157 -10.0539 27.0305Z" fill="#DB1F35"/>
<path fill-rule="evenodd" clip-rule="evenodd" d="M-5 14.4H9.57143V24H14.4286V14.4H29V9.6H14.4286V0H9.57143V9.6H-5V14.4Z" fill="#E6273E"/>
</g>
</g>
<defs>
<clipPath id="clip0_406_7834">
<rect width="24" height="24" rx="12" fill="white"/>
</clipPath>
</defs>
</svg>
