<svg width="20" height="20" viewBox="0 0 20 20" fill="none" xmlns="http://www.w3.org/2000/svg">
<path fill-rule="evenodd" clip-rule="evenodd" d="M9.81394 11.4287C9.25644 11.4287 8.70061 11.2446 8.23561 10.8762L4.49811 7.86292C4.22895 7.64625 4.18728 7.25208 4.40311 6.98375C4.62061 6.71625 5.01394 6.67375 5.28228 6.88958L9.01645 9.89958C9.48561 10.2712 10.1464 10.2712 10.6189 9.89625L14.3156 6.89125C14.5839 6.67208 14.9773 6.71375 15.1956 6.98208C15.4131 7.24958 15.3723 7.64292 15.1048 7.86125L11.4014 10.8712C10.9331 11.2429 10.3731 11.4287 9.81394 11.4287Z" fill="#8C8C8C"/>
<mask id="mask0_751_214" style="mask-type:luminance" maskUnits="userSpaceOnUse" x="0" y="1" width="19" height="18">
<path fill-rule="evenodd" clip-rule="evenodd" d="M0.833252 1.875H18.7498V18.125H0.833252V1.875Z" fill="white"/>
</mask>
<g mask="url(#mask0_751_214)">
<path fill-rule="evenodd" clip-rule="evenodd" d="M5.69917 16.875H13.8825C13.8842 16.8733 13.8908 16.875 13.8958 16.875C14.8467 16.875 15.69 16.535 16.3367 15.8892C17.0875 15.1417 17.5 14.0675 17.5 12.865V7.14167C17.5 4.81417 15.9783 3.125 13.8825 3.125H5.70083C3.605 3.125 2.08333 4.81417 2.08333 7.14167V12.865C2.08333 14.0675 2.49667 15.1417 3.24667 15.8892C3.89333 16.535 4.7375 16.875 5.6875 16.875H5.69917ZM5.68492 18.125C4.39909 18.125 3.25075 17.6583 2.36409 16.775C1.37659 15.79 0.833252 14.4017 0.833252 12.865V7.14167C0.833252 4.13917 2.92575 1.875 5.70075 1.875H13.8824C16.6574 1.875 18.7499 4.13917 18.7499 7.14167V12.865C18.7499 14.4017 18.2066 15.79 17.2191 16.775C16.3333 17.6575 15.1841 18.125 13.8958 18.125H13.8824H5.70075H5.68492Z" fill="#8C8C8C"/>
</g>
</svg>
