<svg width="24" height="24" viewBox="0 0 24 24" fill="none" xmlns="http://www.w3.org/2000/svg">
<path fill-rule="evenodd" clip-rule="evenodd" d="M11.7767 13.7145C11.1077 13.7145 10.4407 13.4935 9.88273 13.0515L5.39773 9.4355C5.07473 9.1755 5.02473 8.7025 5.28373 8.3805C5.54473 8.0595 6.01673 8.0085 6.33873 8.2675L10.8197 11.8795C11.3827 12.3255 12.1757 12.3255 12.7427 11.8755L17.1787 8.2695C17.5007 8.0065 17.9727 8.0565 18.2347 8.3785C18.4957 8.6995 18.4467 9.1715 18.1257 9.4335L13.6817 13.0455C13.1197 13.4915 12.4477 13.7145 11.7767 13.7145Z" fill="#307BFD"/>
<mask id="mask0_137_6344" style="mask-type:luminance" maskUnits="userSpaceOnUse" x="1" y="2" width="22" height="20">
<path fill-rule="evenodd" clip-rule="evenodd" d="M1 2.25H22.4999V21.75H1V2.25Z" fill="white"/>
</mask>
<g mask="url(#mask0_137_6344)">
<path fill-rule="evenodd" clip-rule="evenodd" d="M6.839 20.25H16.659C16.661 20.248 16.669 20.25 16.675 20.25C17.816 20.25 18.828 19.842 19.604 19.067C20.505 18.17 21 16.881 21 15.438V8.57C21 5.777 19.174 3.75 16.659 3.75H6.841C4.326 3.75 2.5 5.777 2.5 8.57V15.438C2.5 16.881 2.996 18.17 3.896 19.067C4.672 19.842 5.685 20.25 6.825 20.25H6.839ZM6.822 21.75C5.279 21.75 3.901 21.19 2.837 20.13C1.652 18.948 1 17.282 1 15.438V8.57C1 4.967 3.511 2.25 6.841 2.25H16.659C19.989 2.25 22.5 4.967 22.5 8.57V15.438C22.5 17.282 21.848 18.948 20.663 20.13C19.6 21.189 18.221 21.75 16.675 21.75H16.659H6.841H6.822Z" fill="#307BFD"/>
</g>
</svg>
