<svg width="40" height="41" viewBox="0 0 40 41" fill="none" xmlns="http://www.w3.org/2000/svg">
<g clip-path="url(#clip0_443_12052)">
<path d="M37.1078 29.2955L36.4007 28.5884V28.5884L37.1078 29.2955ZM7.47319 9.20944L8.1803 9.91654L7.47319 9.20944ZM7.96834 13.0905H29.4527V11.0905H7.96834V13.0905ZM33.2271 16.8648V28.8006H35.2271V16.8648H33.2271ZM29.4527 32.5749H7.96835V34.5749H29.4527V32.5749ZM4.19403 28.8006V16.8648H2.19403V28.8006H4.19403ZM7.96835 32.5749C6.81476 32.5749 6.05017 32.5728 5.48223 32.4964C4.94306 32.424 4.73314 32.3015 4.60032 32.1686L3.18611 33.5828C3.75247 34.1492 4.45479 34.3763 5.21574 34.4786C5.94792 34.577 6.8713 34.5749 7.96835 34.5749V32.5749ZM2.19403 28.8006C2.19403 29.8977 2.19191 30.821 2.29035 31.5532C2.39265 32.3142 2.61975 33.0165 3.18611 33.5828L4.60032 32.1686C4.4675 32.0358 4.345 31.8259 4.27251 31.2867C4.19615 30.7188 4.19403 29.9542 4.19403 28.8006H2.19403ZM33.2271 28.8006C33.2271 29.9542 33.2249 30.7188 33.1486 31.2867C33.0761 31.8259 32.9536 32.0358 32.8208 32.1686L34.235 33.5828C34.8013 33.0165 35.0284 32.3142 35.1307 31.5532C35.2292 30.821 35.2271 29.8977 35.2271 28.8006H33.2271ZM29.4527 34.5749C30.5498 34.5749 31.4732 34.577 32.2054 34.4786C32.9663 34.3763 33.6686 34.1492 34.235 33.5828L32.8208 32.1686C32.6879 32.3015 32.478 32.424 31.9389 32.4964C31.3709 32.5728 30.6063 32.5749 29.4527 32.5749V34.5749ZM29.4527 13.0905C30.6063 13.0905 31.3709 13.0926 31.9389 13.169C32.478 13.2415 32.6879 13.364 32.8208 13.4968L34.235 12.0826C33.6686 11.5162 32.9663 11.2891 32.2053 11.1868C31.4732 11.0884 30.5498 11.0905 29.4527 11.0905V13.0905ZM35.2271 16.8648C35.2271 15.7678 35.2292 14.8444 35.1307 14.1122C35.0284 13.3513 34.8013 12.649 34.235 12.0826L32.8208 13.4968C32.9536 13.6296 33.0761 13.8396 33.1486 14.3787C33.2249 14.9467 33.2271 15.7112 33.2271 16.8648H35.2271ZM7.96834 11.0905C6.8713 11.0905 5.94791 11.0884 5.21574 11.1868C4.45479 11.2891 3.75247 11.5162 3.18611 12.0826L4.60032 13.4968C4.73314 13.364 4.94306 13.2415 5.48223 13.169C6.05017 13.0926 6.81476 13.0905 7.96834 13.0905V11.0905ZM4.19403 16.8648C4.19403 15.7113 4.19615 14.9467 4.27251 14.3787C4.345 13.8396 4.4675 13.6296 4.60032 13.4968L3.18611 12.0826C2.61975 12.649 2.39265 13.3513 2.29035 14.1122C2.19191 14.8444 2.19403 15.7678 2.19403 16.8648H4.19403ZM11.5483 9.51025H33.0327V7.51025H11.5483V9.51025ZM36.807 13.2846V25.2203H38.807V13.2846H36.807ZM36.807 25.2203C36.807 26.3739 36.8049 27.1385 36.7286 27.7065C36.6561 28.2456 36.5336 28.4555 36.4007 28.5884L37.815 30.0026C38.3813 29.4362 38.6084 28.7339 38.7107 27.973C38.8092 27.2408 38.807 26.3174 38.807 25.2203H36.807ZM33.0327 9.51025C34.1863 9.51025 34.9509 9.51238 35.5188 9.58873C36.058 9.66122 36.2679 9.78372 36.4007 9.91654L37.815 8.50233C37.2486 7.93597 36.5463 7.70888 35.7853 7.60657C35.0532 7.50813 34.1298 7.51025 33.0327 7.51025V9.51025ZM38.807 13.2846C38.807 12.1875 38.8092 11.2641 38.7107 10.532C38.6084 9.77101 38.3813 9.06869 37.815 8.50233L36.4007 9.91654C36.5336 10.0494 36.6561 10.2593 36.7286 10.7985C36.8049 11.3664 36.807 12.131 36.807 13.2846H38.807ZM11.5483 7.51025C10.4513 7.51025 9.52789 7.50813 8.79571 7.60657C8.03477 7.70888 7.33244 7.93597 6.76608 8.50233L8.1803 9.91654C8.31312 9.78372 8.52304 9.66122 9.06221 9.58873C9.63014 9.51238 10.3947 9.51025 11.5483 9.51025V7.51025ZM7.77909 12.1055C7.8015 10.5562 7.947 10.1498 8.1803 9.91654L6.76608 8.50233C5.87373 9.39468 5.7997 10.6662 5.7793 12.0765L7.77909 12.1055ZM34.2408 30.9894C35.6511 30.969 36.9226 30.8949 37.815 30.0026L36.4007 28.5884C36.1674 28.8217 35.7611 28.9672 34.2118 28.9896L34.2408 30.9894ZM3.19403 18.1636H34.2271V16.1636H3.19403V18.1636ZM3.19403 21.7443H34.2271V19.7443H3.19403V21.7443ZM29.11 28.4421C29.11 28.8787 28.7561 29.2325 28.3196 29.2325V31.2325C29.8607 31.2325 31.11 29.9832 31.11 28.4421H29.11ZM28.3196 29.2325C27.8831 29.2325 27.5292 28.8787 27.5292 28.4421H25.5292C25.5292 29.9832 26.7785 31.2325 28.3196 31.2325V29.2325ZM27.5292 28.4421C27.5292 28.0056 27.8831 27.6518 28.3196 27.6518V25.6518C26.7785 25.6518 25.5292 26.9011 25.5292 28.4421H27.5292ZM28.3196 27.6518C28.7561 27.6518 29.11 28.0056 29.11 28.4421H31.11C31.11 26.9011 29.8607 25.6518 28.3196 25.6518V27.6518ZM25.9315 29.2325C25.495 29.2325 25.1411 28.8787 25.1411 28.4421H23.1411C23.1411 29.9832 24.3904 31.2325 25.9315 31.2325V29.2325ZM25.1411 28.4421C25.1411 28.0056 25.495 27.6518 25.9315 27.6518V25.6518C24.3904 25.6518 23.1411 26.9011 23.1411 28.4421H25.1411ZM25.9315 27.6518C26.1346 27.6518 26.3177 27.7271 26.4582 27.8528L27.792 26.3625C27.299 25.9213 26.6455 25.6518 25.9315 25.6518V27.6518ZM26.4582 29.0315C26.3177 29.1572 26.1346 29.2325 25.9315 29.2325V31.2325C26.6455 31.2325 27.299 30.963 27.792 30.5218L26.4582 29.0315Z" fill="#307BFD"/>
</g>
<defs>
<clipPath id="clip0_443_12052">
<rect width="40" height="40" fill="white" transform="translate(0 0.624512)"/>
</clipPath>
</defs>
</svg>
