<svg width="40" height="40" viewBox="0 0 40 40" fill="none" xmlns="http://www.w3.org/2000/svg">
<path d="M33.2447 4.65906C33.0069 4.31815 32.6502 4.09088 32.1745 4.09088H17.9058C17.4302 4.09088 17.0735 4.31815 16.8356 4.65906L8.51222 19.4318C8.27441 19.7727 8.27441 20.2272 8.51222 20.5682C8.75003 20.9091 9.10675 21.1363 9.58238 21.1363H14.8142L8.51222 34.3182C8.27441 34.7727 8.39332 35.3409 8.86894 35.6818C8.98785 35.7954 9.34456 35.9091 9.58238 35.9091C9.82019 35.9091 10.058 35.7954 10.2958 35.6818L31.6989 20.9091C32.1745 20.5682 32.2934 20.1136 32.1745 19.6591C32.0556 19.2045 31.58 18.8636 30.9855 18.8636H25.8725L33.2447 5.79543C33.3636 5.45452 33.3636 4.99997 33.2447 4.65906Z" stroke="#307BFD" stroke-width="2.83199" stroke-linejoin="round"/>
</svg>
