<svg width="42" height="42" viewBox="0 0 42 42" fill="none" xmlns="http://www.w3.org/2000/svg">
<rect x="1" y="0.624512" width="40" height="40" rx="20" stroke="#BDBDBD"/>
<path d="M12.1144 18.9056C11.9738 18.7649 11.8948 18.5742 11.8948 18.3753C11.8948 18.1764 11.9738 17.9857 12.1144 17.8451L19.0834 10.8746L19.1884 10.7861C19.3329 10.6868 19.5076 10.6413 19.6821 10.6575C19.8567 10.6737 20.0201 10.7505 20.1439 10.8746L20.2309 10.9796C20.3304 11.1241 20.3762 11.299 20.3603 11.4738C20.3444 11.6486 20.2679 11.8123 20.1439 11.9366L14.4559 17.6246H31.0834C31.2823 17.6246 31.4731 17.7036 31.6137 17.8442C31.7544 17.9849 31.8334 18.1756 31.8334 18.3746C31.8334 18.5735 31.7544 18.7642 31.6137 18.9049C31.4731 19.0455 31.2823 19.1246 31.0834 19.1246H12.6439C12.4453 19.1245 12.2549 19.0458 12.1144 18.9056ZM10.8334 22.8746C10.8334 22.6756 10.9124 22.4849 11.053 22.3442C11.1937 22.2036 11.3845 22.1246 11.5834 22.1246H30.0229C30.1711 22.1246 30.316 22.1685 30.4392 22.2509C30.5625 22.3332 30.6586 22.4502 30.7154 22.5871C30.7722 22.724 30.7872 22.8746 30.7585 23.02C30.7297 23.1655 30.6585 23.2991 30.5539 23.4041L23.5834 30.3746L23.4784 30.4631C23.324 30.5672 23.1365 30.6103 22.9522 30.5841C22.7678 30.5578 22.5998 30.4641 22.4806 30.321C22.3615 30.1779 22.2997 29.9957 22.3072 29.8097C22.3147 29.6237 22.391 29.447 22.5214 29.3141L28.2154 23.6246H11.5834C11.3845 23.6246 11.1937 23.5455 11.053 23.4049C10.9124 23.2642 10.8334 23.0735 10.8334 22.8746Z" fill="#111111"/>
</svg>
