<svg width="111" height="110" viewBox="0 0 111 110" fill="none" xmlns="http://www.w3.org/2000/svg">
<g filter="url(#filter0_d_443_776)">
<g clip-path="url(#clip0_443_776)">
<rect x="21.5" y="17" width="60" height="60" rx="12" fill="white"/>
<g filter="url(#filter1_d_443_776)">
<g filter="url(#filter2_d_443_776)">
<g clip-path="url(#clip1_443_776)">
<rect x="36.5687" y="32.0685" width="30.7506" height="30.7506" rx="15.3753" fill="white"/>
<rect x="30.1624" y="32.0685" width="43.5634" height="30.7506" rx="2.56255" fill="white"/>
<mask id="mask0_443_776" style="mask-type:luminance" maskUnits="userSpaceOnUse" x="30" y="32" width="44" height="31">
<rect x="30.1624" y="32.0685" width="43.5634" height="30.7506" rx="2.56255" fill="white"/>
</mask>
<g mask="url(#mask0_443_776)">
<path fill-rule="evenodd" clip-rule="evenodd" d="M30.1624 40.2686H73.7257V32.0685H30.1624V40.2686Z" fill="#DD172C"/>
<path fill-rule="evenodd" clip-rule="evenodd" d="M30.1625 62.8191H73.7258V54.619H30.1625V62.8191Z" fill="#DD172C"/>
<path fill-rule="evenodd" clip-rule="evenodd" d="M30.1625 54.6189H73.7258V40.2686H30.1625V54.6189Z" fill="#FFD133"/>
<path fill-rule="evenodd" clip-rule="evenodd" d="M41.572 46.4188H43.6464V47.4438H41.572V46.4188Z" fill="#FFEDB1"/>
<path d="M40.9464 46.2843C40.9253 46.0351 41.1219 45.8213 41.3719 45.8213H44.6996C44.9496 45.8213 45.1461 46.0351 45.1251 46.2843L44.8166 49.9436C44.7606 50.6072 44.2057 51.1173 43.5398 51.1173H42.5317C41.8658 51.1173 41.3109 50.6072 41.2549 49.9436L40.9464 46.2843Z" stroke="#A41517" stroke-width="0.854183"/>
<path fill-rule="evenodd" clip-rule="evenodd" d="M40.962 47.4438H45.1109V48.4688H44.0736L43.0364 50.5188L41.9992 48.4688H40.962V47.4438Z" fill="#A41517"/>
<rect x="37.8501" y="44.3682" width="2.07445" height="7.17514" rx="0.854183" fill="#A41517"/>
<rect x="46.1471" y="44.3682" width="2.07444" height="7.17514" rx="0.854183" fill="#A41517"/>
<path d="M40.962 43.9587C40.962 43.0529 41.6962 42.3187 42.602 42.3187H43.4708C44.3766 42.3187 45.1109 43.0529 45.1109 43.9587C45.1109 44.1851 44.9273 44.3687 44.7009 44.3687H41.372C41.1455 44.3687 40.962 44.1851 40.962 43.9587Z" fill="#A41517"/>
</g>
</g>
</g>
</g>
</g>
</g>
<defs>
<filter id="filter0_d_443_776" x="0.5" y="0" width="110" height="110" filterUnits="userSpaceOnUse" color-interpolation-filters="sRGB">
<feFlood flood-opacity="0" result="BackgroundImageFix"/>
<feColorMatrix in="SourceAlpha" type="matrix" values="0 0 0 0 0 0 0 0 0 0 0 0 0 0 0 0 0 0 127 0" result="hardAlpha"/>
<feOffset dx="4" dy="8"/>
<feGaussianBlur stdDeviation="12.5"/>
<feComposite in2="hardAlpha" operator="out"/>
<feColorMatrix type="matrix" values="0 0 0 0 0 0 0 0 0 0 0 0 0 0 0 0 0 0 0.05 0"/>
<feBlend mode="normal" in2="BackgroundImageFix" result="effect1_dropShadow_443_776"/>
<feBlend mode="normal" in="SourceGraphic" in2="effect1_dropShadow_443_776" result="shape"/>
</filter>
<filter id="filter1_d_443_776" x="8.17578" y="12.0685" width="87.5365" height="78.7506" filterUnits="userSpaceOnUse" color-interpolation-filters="sRGB">
<feFlood flood-opacity="0" result="BackgroundImageFix"/>
<feColorMatrix in="SourceAlpha" type="matrix" values="0 0 0 0 0 0 0 0 0 0 0 0 0 0 0 0 0 0 127 0" result="hardAlpha"/>
<feOffset dy="4"/>
<feGaussianBlur stdDeviation="12"/>
<feComposite in2="hardAlpha" operator="out"/>
<feColorMatrix type="matrix" values="0 0 0 0 0 0 0 0 0 0 0 0 0 0 0 0 0 0 0.05 0"/>
<feBlend mode="normal" in2="BackgroundImageFix" result="effect1_dropShadow_443_776"/>
<feBlend mode="normal" in="SourceGraphic" in2="effect1_dropShadow_443_776" result="shape"/>
</filter>
<filter id="filter2_d_443_776" x="29.9021" y="26.4685" width="44.0839" height="44.0839" filterUnits="userSpaceOnUse" color-interpolation-filters="sRGB">
<feFlood flood-opacity="0" result="BackgroundImageFix"/>
<feColorMatrix in="SourceAlpha" type="matrix" values="0 0 0 0 0 0 0 0 0 0 0 0 0 0 0 0 0 0 127 0" result="hardAlpha"/>
<feMorphology radius="1.33333" operator="erode" in="SourceAlpha" result="effect1_dropShadow_443_776"/>
<feOffset dy="1.06667"/>
<feGaussianBlur stdDeviation="4"/>
<feComposite in2="hardAlpha" operator="out"/>
<feColorMatrix type="matrix" values="0 0 0 0 0 0 0 0 0 0 0 0 0 0 0 0 0 0 0.05 0"/>
<feBlend mode="normal" in2="BackgroundImageFix" result="effect1_dropShadow_443_776"/>
<feBlend mode="normal" in="SourceGraphic" in2="effect1_dropShadow_443_776" result="shape"/>
</filter>
<clipPath id="clip0_443_776">
<rect x="21.5" y="17" width="60" height="60" rx="12" fill="white"/>
</clipPath>
<clipPath id="clip1_443_776">
<rect x="36.5687" y="32.0685" width="30.7506" height="30.7506" rx="15.3753" fill="white"/>
</clipPath>
</defs>
</svg>
