<svg width="41" height="41" viewBox="0 0 41 41" fill="none" xmlns="http://www.w3.org/2000/svg">
<g clip-path="url(#clip0_443_12118)">
<path fill-rule="evenodd" clip-rule="evenodd" d="M20.0945 21.0797H20.1462C24.8662 21.0797 28.7062 17.2397 28.7062 12.5197C28.7062 7.79967 24.8662 3.95801 20.1462 3.95801C15.4245 3.95801 11.5845 7.79967 11.5845 12.5147C11.5762 14.7963 12.4579 16.943 14.0645 18.5613C15.6695 20.178 17.8112 21.073 20.0945 21.0797ZM14.0845 12.5197C14.0845 9.17801 16.8045 6.45801 20.1462 6.45801C23.4879 6.45801 26.2062 9.17801 26.2062 12.5197C26.2062 15.8613 23.4879 18.5797 20.1462 18.5797H20.0995C18.4862 18.5763 16.9745 17.943 15.8379 16.798C14.7012 15.6547 14.0795 14.1363 14.0845 12.5197Z" fill="#307BFD"/>
<path fill-rule="evenodd" clip-rule="evenodd" d="M7.50082 32.5195C7.50082 38.5612 17.0275 38.5612 20.1575 38.5612C23.2875 38.5612 32.8158 38.5612 32.8158 32.4829C32.8158 27.8279 27.0192 23.8945 20.1575 23.8945C13.2975 23.8945 7.50082 27.8445 7.50082 32.5195ZM10.0008 32.5195C10.0008 29.6279 14.3442 26.3945 20.1575 26.3945C25.9725 26.3945 30.3158 29.6095 30.3158 32.4829C30.3158 34.8562 26.8975 36.0612 20.1575 36.0612C13.4191 36.0612 10.0008 34.8695 10.0008 32.5195Z" fill="#307BFD"/>
</g>
<defs>
<clipPath id="clip0_443_12118">
<rect width="40" height="40" fill="white" transform="translate(0.333374 0.624512)"/>
</clipPath>
</defs>
</svg>
